<?xml version="1.0" standalone="no"?>
<!DOCTYPE svg PUBLIC "-//W3C//DTD SVG 20010904//EN"
 "http://www.w3.org/TR/2001/REC-SVG-20010904/DTD/svg10.dtd">
<svg version="1.0" xmlns="http://www.w3.org/2000/svg"
 width="488.000000pt" height="488.000000pt" viewBox="0 0 488.000000 488.000000"
 preserveAspectRatio="xMidYMid meet">
<metadata>
Created by potrace 1.14, written by Peter Selinger 2001-2017
</metadata>
<g transform="translate(0.000000,488.000000) scale(0.100000,-0.100000)"
fill="#000000" stroke="none">
<path d="M0 3579 c0 -864 3 -1298 10 -1294 5 3 10 15 10 26 0 20 0 20 22 -1
12 -11 33 -20 47 -20 21 -1 23 -2 10 -10 -9 -5 -22 -23 -29 -39 -11 -28 -13
-29 -34 -16 -13 9 -25 12 -29 9 -3 -4 -7 -159 -7 -345 0 -265 3 -339 12 -339
9 0 10 -3 2 -8 -6 -4 -12 -28 -13 -54 -1 -39 2 -48 19 -53 26 -8 26 -25 0 -32
-20 -5 -20 -14 -20 -704 l0 -699 2440 0 2440 0 0 2440 0 2440 -2440 0 -2440 0
0 -1301z m2485 471 c-19 -8 -19 -9 2 -9 34 -1 53 -12 53 -30 -1 -14 -2 -14
-14 2 -7 9 -19 17 -27 17 -10 0 -10 -3 -3 -8 7 -4 10 -18 9 -32 -1 -14 -3 -33
-4 -42 -1 -12 -6 -15 -18 -11 -10 4 -14 2 -9 -5 12 -20 43 -10 40 14 -2 25 5
38 28 47 13 4 15 2 11 -11 -5 -14 -4 -15 8 -6 8 6 24 10 36 9 13 -1 19 3 16 8
-4 7 1 8 13 3 10 -4 24 -9 30 -10 7 -1 18 -7 26 -14 15 -12 28 -7 28 10 0 5
-5 6 -10 3 -6 -3 -13 1 -16 10 -5 12 -9 13 -20 4 -12 -10 -13 -9 -8 5 3 9 17
16 33 16 21 0 23 2 11 10 -11 8 -4 9 25 6 50 -6 105 -25 105 -37 0 -4 7 -6 15
-3 9 4 15 1 15 -7 0 -9 12 -14 33 -13 43 0 57 -5 57 -24 0 -13 3 -12 16 4 8
10 13 14 10 8 -3 -7 4 -14 15 -17 31 -8 23 -59 -11 -67 -15 -4 -20 -9 -13 -13
17 -11 39 1 51 28 7 15 19 23 32 22 11 -1 20 -2 20 -3 0 -2 -4 -14 -9 -27 -9
-22 -7 -25 13 -23 13 2 28 6 34 10 7 4 12 3 12 -1 0 -11 60 -34 71 -27 5 3 9
1 9 -5 0 -6 6 -8 14 -5 14 5 77 -31 84 -48 2 -5 9 -8 16 -8 17 0 48 -35 39
-44 -4 -4 0 -4 8 -1 9 3 23 -3 34 -15 10 -11 15 -20 10 -20 -4 0 -2 -7 5 -15
7 -8 17 -12 22 -9 13 8 43 -37 40 -58 -3 -16 9 -23 32 -19 12 2 33 -17 59 -53
16 -24 17 -28 3 -17 -14 12 -19 12 -26 2 -4 -8 -13 -10 -20 -6 -9 5 -11 4 -6
-4 5 -7 -3 -22 -18 -36 -26 -24 -41 -20 -30 8 3 9 13 14 22 11 9 -2 2 3 -17
11 -25 12 -37 13 -45 5 -8 -8 -6 -9 8 -4 13 5 17 4 12 -4 -4 -7 -14 -12 -22
-12 -8 0 -14 -4 -14 -10 0 -5 6 -7 14 -4 11 4 13 0 9 -15 -4 -17 -2 -20 11
-15 9 3 16 1 16 -5 0 -6 7 -8 17 -4 11 4 14 3 9 -5 -4 -7 -14 -12 -22 -12 -8
0 -14 -4 -14 -9 0 -5 -9 -7 -20 -4 -12 3 -20 0 -20 -6 0 -7 5 -9 11 -5 6 3 15
0 20 -7 7 -12 9 -12 9 0 0 7 6 11 15 7 8 -3 18 1 23 10 4 8 17 16 28 18 10 3
28 7 39 11 14 5 16 4 6 -3 -9 -7 -10 -12 -2 -16 6 -4 11 -12 11 -18 0 -7 -4
-7 -13 1 -8 6 -17 8 -21 4 -4 -4 -12 -1 -17 7 -8 11 -9 10 -4 -7 5 -17 2 -23
-9 -23 -9 0 -16 -4 -16 -10 0 -5 7 -10 15 -10 8 0 15 5 15 11 0 6 7 9 14 6 11
-4 13 -1 9 11 -5 13 -4 15 8 6 8 -5 24 -9 37 -8 16 1 22 -4 22 -18 0 -13 4
-17 13 -11 18 11 37 13 37 3 0 -11 -39 -24 -47 -16 -8 7 -33 -13 -33 -26 0 -5
5 -6 10 -3 6 3 10 -1 10 -9 0 -9 -6 -16 -12 -16 -9 0 -8 -4 2 -10 13 -9 13
-10 0 -11 -8 0 -3 -5 13 -11 15 -5 24 -14 21 -20 -4 -6 0 -14 7 -19 11 -7 10
-9 -3 -9 -17 0 -24 -20 -12 -33 9 -8 54 43 54 61 0 13 3 12 15 -4 8 -11 15
-14 15 -6 0 6 5 12 11 12 5 0 8 -4 5 -9 -3 -5 2 -15 11 -22 15 -12 16 -12 10
4 -4 11 -3 16 3 12 15 -9 12 -45 -3 -39 -10 3 -12 -5 -9 -31 2 -19 8 -35 12
-35 13 0 55 -42 52 -52 -1 -5 2 -7 7 -4 5 4 12 2 16 -4 3 -5 0 -10 -7 -10 -7
0 -18 -11 -25 -25 -6 -14 -7 -23 -2 -19 5 3 9 0 9 -6 0 -7 7 -10 18 -6 12 4
11 1 -5 -13 -24 -20 -32 -48 -11 -35 8 5 9 2 5 -10 -4 -10 -7 -22 -7 -27 0 -5
-7 -9 -16 -9 -9 0 -12 -5 -8 -12 5 -9 2 -8 -10 1 -15 12 -19 12 -34 -2 -15
-16 -15 -18 6 -33 12 -8 20 -20 17 -25 -4 -5 0 -9 7 -9 9 0 8 -4 -3 -15 -12
-12 -21 -14 -42 -6 -15 6 -27 13 -27 17 0 3 6 4 13 1 7 -3 19 4 25 14 10 16 9
19 -3 19 -8 0 -15 4 -15 9 0 5 -8 11 -18 13 -14 4 -17 -1 -16 -21 2 -51 4 -58
17 -58 6 0 21 -3 33 -7 14 -4 29 0 45 13 23 19 23 20 5 40 -18 20 -18 21 10
33 16 7 32 17 37 23 5 6 13 3 22 -9 8 -11 15 -16 15 -12 0 23 33 -30 34 -55 1
-16 3 -29 6 -29 3 0 5 -13 5 -28 0 -28 -23 -68 -33 -58 -2 3 -12 -2 -21 -11
-11 -12 -13 -17 -3 -21 6 -2 12 -8 12 -14 0 -6 -6 -6 -15 2 -12 10 -18 10 -31
-1 -14 -12 -14 -14 3 -27 17 -13 16 -14 -6 -7 -15 4 -21 3 -17 -3 3 -5 0 -10
-7 -9 -36 1 -46 -4 -40 -19 4 -12 2 -15 -8 -12 -8 3 -13 12 -13 20 1 10 -8 16
-25 16 -59 2 -63 3 -57 17 3 8 1 17 -4 20 -6 4 -10 2 -10 -3 0 -6 -9 -8 -20
-5 -11 3 -20 9 -20 14 0 5 -3 8 -7 8 -5 -1 -10 0 -13 1 -28 10 -78 3 -94 -15
-16 -16 -18 -17 -13 -2 4 9 2 17 -3 17 -5 0 -16 7 -24 16 -9 8 -16 11 -16 5 0
-6 -13 -11 -30 -11 -16 0 -30 -4 -30 -8 0 -4 -23 -7 -52 -5 -29 1 -63 -4 -79
-13 -15 -7 -34 -11 -42 -8 -8 3 -18 0 -22 -5 -3 -6 -11 -9 -16 -6 -5 4 -9 1
-9 -6 0 -8 -3 -9 -13 0 -11 8 -17 5 -26 -15 l-12 -26 -23 25 c-15 17 -31 24
-49 22 -30 -4 -37 11 -9 19 9 2 6 4 -8 3 -15 -2 -24 -8 -22 -15 1 -8 -2 -11
-7 -8 -5 3 -7 16 -3 28 5 19 4 20 -10 7 -9 -7 -13 -18 -10 -23 3 -5 -8 -6 -26
-3 -17 4 -34 2 -37 -3 -3 -6 -14 -10 -25 -10 -10 0 -20 -7 -24 -15 -6 -18 5
-20 21 -4 12 12 55 -5 50 -19 -1 -4 3 -8 8 -9 6 -1 9 7 9 18 -1 15 1 18 9 10
9 -9 8 -17 -1 -31 -6 -11 -12 -26 -12 -34 0 -19 29 -29 45 -16 9 8 14 6 19 -6
5 -13 9 -14 21 -4 8 6 19 9 25 5 5 -3 10 0 11 7 0 10 2 10 6 1 2 -7 16 -13 29
-13 20 0 24 -5 24 -30 0 -25 -6 -32 -36 -45 -47 -20 -51 -19 -29 5 11 12 25
18 34 15 12 -5 13 -3 5 5 -9 9 -17 9 -33 1 -14 -8 -21 -8 -21 -1 0 5 -8 10
-17 10 -15 0 -14 -2 3 -15 13 -10 15 -17 8 -22 -7 -5 -8 -16 -3 -28 4 -12 8
-14 8 -6 1 11 5 10 16 -5 15 -18 15 -18 8 0 -4 13 -3 17 5 12 7 -4 12 -2 12 6
0 8 5 6 11 -5 5 -9 7 -22 4 -27 -3 -6 3 -10 14 -10 20 0 51 24 51 41 0 5 7 9
15 9 9 0 18 7 21 15 4 9 11 15 18 14 27 -3 35 2 29 18 -5 13 -3 15 13 9 10 -5
26 -8 34 -7 8 1 26 1 39 1 14 0 28 6 33 12 5 9 8 8 8 -4 0 -10 5 -18 11 -18 5
0 7 5 4 10 -3 6 -1 10 4 10 6 0 11 -7 11 -15 0 -8 4 -15 9 -15 6 0 8 9 6 20
-4 19 6 25 30 20 33 -6 68 -1 76 11 7 11 9 11 9 -3 0 -10 -8 -18 -17 -18 -16
-1 -16 -2 1 -11 15 -9 16 -13 5 -20 -11 -7 -11 -9 2 -9 9 0 19 7 23 15 3 8 1
15 -3 15 -5 0 -7 9 -4 20 3 11 10 20 15 20 5 0 6 -4 3 -10 -3 -5 1 -10 9 -10
9 0 16 -4 16 -10 0 -5 -6 -10 -12 -10 -9 0 -10 -2 -2 -8 6 -4 14 -18 18 -32
l7 -25 -16 25 c-10 16 -14 18 -11 6 4 -10 1 -25 -5 -32 -9 -11 -8 -18 2 -31
11 -15 11 -16 -1 -5 -19 16 -30 15 -30 -3 0 -8 7 -15 16 -15 8 0 13 -4 9 -10
-3 -5 -13 -6 -22 -3 -11 4 -14 3 -9 -5 4 -7 1 -12 -8 -12 -9 0 -16 5 -16 10 0
6 5 10 10 10 6 0 10 4 10 9 0 5 -12 8 -27 8 -16 0 -22 -2 -15 -4 21 -8 14 -36
-8 -30 -13 3 -25 -2 -33 -13 -12 -17 -17 -20 -39 -20 -7 0 -6 -6 4 -17 8 -10
13 -26 10 -36 -4 -18 -4 -18 -18 0 -14 17 -14 17 -5 -4 11 -21 43 -25 69 -9 7
4 12 1 12 -6 0 -9 3 -9 10 2 5 8 10 11 10 5 0 -19 -18 -38 -29 -31 -7 4 -9 1
-5 -7 3 -8 0 -18 -5 -22 -6 -3 -9 -10 -6 -15 3 -5 -4 -14 -15 -20 -16 -9 -20
-8 -20 5 0 8 -5 15 -11 15 -5 0 -7 -5 -3 -11 3 -6 0 -16 -7 -21 -11 -8 -10 -9
4 -4 9 3 17 1 17 -4 0 -6 -6 -10 -12 -11 -7 0 -4 -4 7 -9 l20 -9 -20 0 c-16
-1 -17 -3 -5 -11 8 -5 11 -12 7 -16 -9 -9 -38 16 -31 27 3 5 0 9 -7 9 -7 0
-10 -11 -7 -32 4 -26 3 -29 -7 -14 -11 14 -13 15 -19 1 -3 -8 0 -15 6 -15 9 0
9 -3 0 -12 -10 -10 -15 -10 -22 2 -8 13 -10 12 -10 -2 0 -12 8 -18 24 -18 14
0 27 -4 30 -9 4 -5 -2 -8 -11 -6 -27 4 -53 -13 -47 -30 4 -8 1 -15 -6 -15 -6
0 -9 4 -6 9 3 5 -1 11 -9 15 -11 4 -15 -2 -15 -21 0 -41 22 -106 31 -91 4 7 4
17 0 23 -14 18 -21 45 -11 45 5 0 12 -11 16 -25 9 -34 33 -53 44 -34 7 9 5 15
-5 17 -16 4 -21 22 -6 22 22 0 41 -13 42 -29 0 -10 2 -11 6 -3 2 6 9 12 15 12
6 0 7 -7 4 -16 -5 -14 -4 -15 9 -4 12 10 13 15 3 28 -11 13 -10 15 10 9 17 -4
22 -2 18 8 -3 8 0 16 7 19 9 3 8 7 -2 14 -8 6 -10 15 -6 22 11 18 28 -15 20
-39 -3 -12 0 -18 10 -18 14 0 19 10 16 30 -1 4 11 4 26 1 26 -7 27 -6 10 10
-9 9 -22 14 -28 10 -7 -4 -10 -1 -7 7 3 8 14 13 24 11 15 -2 16 -1 4 7 -9 7
-19 6 -28 -1 -19 -16 -51 19 -56 60 -5 33 13 92 27 92 5 0 5 9 2 20 -3 11 -2
20 3 20 5 0 13 -10 17 -22 7 -22 7 -22 12 -3 3 11 9 25 14 32 7 7 5 13 -3 16
-10 3 -10 7 -1 17 9 10 13 7 19 -14 3 -14 11 -26 16 -26 17 0 38 -28 32 -44
-3 -9 -15 -16 -25 -16 -12 0 -16 -5 -13 -15 4 -10 0 -15 -15 -15 -12 0 -21 -4
-21 -10 0 -5 -7 -10 -16 -10 -14 0 -14 -2 1 -16 9 -9 26 -14 39 -12 27 5 51
-23 35 -39 -7 -7 -5 -12 6 -17 9 -3 13 -2 10 4 -3 6 -2 10 4 10 5 0 13 -5 17
-11 3 -6 17 -9 30 -6 13 2 21 1 19 -4 -3 -4 -1 -10 5 -14 5 -3 10 2 10 12 0
15 2 15 10 3 6 -9 5 -20 -3 -30 -10 -12 -8 -12 13 1 14 9 26 26 28 39 3 18 0
21 -17 15 -12 -3 -21 -2 -21 3 0 15 32 24 44 12 13 -13 29 -13 21 0 -4 6 -1
17 5 25 6 8 9 18 6 23 -3 6 1 15 9 22 11 9 15 9 15 1 0 -7 4 -10 9 -7 5 4 20
2 34 -3 19 -8 23 -15 20 -35 -3 -14 -10 -26 -15 -26 -5 0 -6 5 -3 10 3 6 1 10
-4 10 -6 0 -11 -9 -11 -20 0 -11 -5 -20 -11 -20 -5 0 -8 -4 -4 -9 3 -5 0 -13
-6 -16 -5 -4 -8 -13 -5 -21 3 -8 0 -11 -10 -7 -8 3 -14 -1 -15 -11 -3 -39 -19
-66 -38 -66 -14 1 -14 2 2 14 24 18 21 36 -5 36 -19 0 -20 -2 -8 -10 8 -5 12
-10 8 -10 -3 0 -14 -3 -24 -7 -14 -5 -16 -2 -12 15 4 12 4 22 2 22 -11 0 -65
-63 -58 -69 4 -3 9 0 11 7 3 6 12 12 21 11 11 0 12 -2 5 -6 -7 -2 -13 -11 -13
-18 0 -8 -8 -19 -17 -24 -16 -9 -16 -10 4 -11 13 0 24 8 28 20 7 22 40 27 65
9 13 -10 13 -10 0 -6 -12 4 -16 -3 -16 -28 0 -18 -8 -40 -17 -49 -9 -10 -17
-25 -18 -34 0 -12 -3 -11 -9 6 -10 24 -25 29 -35 11 -4 -6 -13 -8 -21 -5 -10
4 -14 0 -12 -11 2 -10 -2 -18 -9 -18 -6 0 -15 -4 -20 -8 -4 -5 -2 -7 6 -5 7 1
16 -3 18 -9 3 -9 -4 -11 -25 -7 -29 6 -29 5 -25 -33 4 -46 -20 -88 -37 -63 -9
13 -10 13 -11 0 -1 -8 -1 -18 0 -22 2 -12 -24 -9 -39 5 -12 10 -12 9 -2 -4 10
-14 10 -20 -3 -33 -9 -9 -23 -16 -31 -16 -8 0 -12 -4 -9 -10 3 -5 -5 -15 -19
-21 -24 -11 -24 -13 -8 -25 16 -12 16 -13 0 -19 -10 -4 -14 -13 -11 -23 7 -18
5 -17 -17 12 -10 13 -10 17 -2 12 6 -4 12 -2 12 3 0 18 -20 12 -52 -14 -16
-14 -34 -22 -40 -19 -5 3 -8 -2 -6 -12 2 -14 -3 -19 -21 -19 -13 0 -27 -7 -29
-15 -6 -16 -27 -40 -37 -40 -3 0 -5 7 -3 16 2 10 -3 19 -10 21 -8 3 -10 -1 -5
-13 4 -12 3 -15 -5 -10 -7 4 -12 1 -12 -8 0 -8 -5 -18 -11 -22 -9 -5 -10 1 -5
20 9 37 -9 25 -30 -20 -13 -26 -21 -33 -35 -29 -11 4 -19 2 -19 -5 0 -6 5 -8
10 -5 6 3 10 -1 10 -11 0 -13 3 -14 14 -4 8 6 25 10 38 8 22 -4 22 -5 -7 -17
-22 -9 -35 -10 -47 -2 -12 7 -18 8 -18 1 0 -5 -4 -10 -10 -10 -5 0 -10 8 -10
18 0 11 -7 18 -20 18 -11 0 -20 -4 -20 -9 0 -5 -6 -7 -12 -4 -7 2 -18 -3 -25
-12 -10 -14 -13 -14 -30 1 -18 16 -20 15 -38 -12 -11 -17 -26 -31 -32 -31 -7
-1 -17 -2 -21 -3 -5 0 -17 -9 -27 -20 -18 -18 -18 -18 1 -14 10 2 18 9 17 16
-2 6 4 9 11 6 8 -3 12 -12 10 -19 -3 -7 0 -16 7 -21 8 -4 10 -3 5 4 -16 26 6
32 25 7 11 -13 17 -29 14 -35 -11 -18 -43 -11 -60 13 -15 20 -16 20 -13 2 2
-12 -4 -21 -16 -23 -14 -3 -18 0 -14 15 4 13 0 19 -12 20 -13 1 -16 -4 -12
-19 3 -15 1 -19 -9 -16 -8 3 -13 14 -11 25 2 14 -4 22 -19 26 -11 3 -18 10
-15 15 3 6 -5 5 -19 -1 -19 -9 -25 -18 -22 -34 6 -33 -9 -28 -22 7 -12 36 -29
39 -27 5 0 -14 7 -25 14 -25 8 0 12 -6 9 -12 -2 -7 -10 -12 -16 -10 -6 1 -11
-5 -11 -13 0 -9 -9 -15 -24 -15 -19 0 -22 4 -18 25 3 18 0 25 -11 25 -10 0
-13 -6 -10 -21 5 -19 4 -20 -16 -9 -19 10 -20 14 -9 27 12 15 11 15 -12 2 -14
-8 -28 -18 -32 -24 -4 -5 -9 -3 -13 5 -3 8 -16 16 -30 16 -31 2 -32 -4 -2 -16
22 -10 22 -10 -3 -8 -14 1 -29 0 -35 -4 -19 -11 -253 21 -377 51 -32 7 -38 6
-39 -8 0 -9 -4 -6 -10 9 -7 19 -22 29 -57 39 -26 8 -53 16 -61 19 -10 4 -12 1
-6 -8 5 -9 4 -11 -4 -6 -7 4 -9 17 -6 29 4 14 3 17 -2 10 -7 -10 -13 -10 -28
1 -11 8 -26 11 -34 8 -10 -4 -13 -1 -9 9 4 9 -2 20 -13 27 -16 10 -19 9 -20
-5 0 -14 -3 -12 -10 5 -5 13 -13 20 -19 17 -5 -3 -10 -1 -10 5 0 7 -6 10 -12
7 -15 -5 -50 32 -42 44 3 5 -6 9 -21 9 -14 0 -28 7 -31 15 -4 8 -16 15 -28 16
-11 0 -15 3 -8 6 6 2 12 9 12 14 0 4 -7 6 -15 3 -10 -4 -15 0 -16 12 0 11 -3
14 -6 7 -2 -7 -9 -13 -15 -13 -6 0 -8 7 -4 15 3 10 -1 15 -13 15 -11 0 -18 7
-17 16 0 9 -5 19 -13 22 -9 3 -11 0 -6 -8 5 -8 3 -11 -6 -8 -8 3 -13 10 -12
16 2 6 -6 14 -18 17 -31 10 -66 54 -64 80 2 18 -1 22 -16 18 -12 -4 -24 4 -37
27 -14 22 -22 27 -26 18 -3 -7 -4 -3 -2 10 2 12 0 20 -4 17 -5 -3 -17 13 -27
35 -10 22 -23 40 -29 40 -6 0 -11 11 -12 25 0 13 5 22 9 19 11 -6 69 17 69 28
0 11 -11 9 -40 -7 -14 -7 -29 -10 -35 -5 -5 4 -19 10 -30 13 -19 5 -19 5 3 12
23 8 30 25 10 25 -9 0 -9 3 0 12 7 7 12 21 12 32 0 16 -3 17 -9 8 -7 -11 -12
-12 -29 -1 -25 15 -35 40 -46 115 -5 27 -2 33 19 38 15 4 23 13 22 25 -1 15
-6 17 -32 11 -26 -6 -31 -4 -31 12 0 13 5 16 18 12 13 -4 16 -1 12 10 -3 8 2
26 11 39 11 17 13 27 6 32 -6 3 -11 -2 -11 -12 0 -15 -2 -16 -10 -3 -8 13 -10
12 -10 -2 0 -10 -4 -18 -10 -18 -13 0 -13 27 0 35 5 3 6 13 3 22 -5 12 -3 14
8 7 8 -5 17 -9 20 -9 11 0 40 -35 29 -35 -6 0 -8 -5 -4 -12 4 -6 -1 -17 -11
-25 -11 -7 -15 -13 -9 -14 29 -2 45 -9 65 -28 13 -12 28 -21 35 -21 7 0 20 -3
30 -7 12 -4 15 -3 10 5 -9 15 6 16 21 1 14 -14 53 -2 53 17 0 8 4 13 9 10 5
-3 7 -15 4 -26 -3 -11 -8 -18 -12 -16 -4 3 -13 1 -20 -3 -8 -5 3 -11 30 -15
24 -4 39 -10 34 -14 -14 -10 -18 -42 -6 -42 5 0 13 9 16 20 3 11 10 20 15 20
5 0 7 -6 4 -14 -4 -11 0 -13 16 -9 16 4 18 8 8 14 -10 7 -10 9 0 9 6 0 12 11
12 25 0 18 5 25 20 25 13 0 18 -5 14 -15 -4 -8 -1 -15 5 -15 6 0 11 6 11 13 0
6 12 17 26 24 21 10 26 9 31 -4 4 -10 8 -11 13 -3 5 8 14 8 34 0 37 -14 46
-13 46 5 0 8 -5 15 -11 15 -5 0 -7 -5 -4 -11 4 -6 -2 -5 -14 3 -19 12 -20 13
-4 18 36 10 55 27 51 46 -2 10 -10 18 -16 16 -7 -1 -12 3 -12 9 0 7 7 8 18 4
9 -4 28 -10 41 -13 19 -4 22 -2 16 9 -8 12 -6 12 8 1 9 -8 21 -10 28 -6 8 5 6
10 -7 17 -29 17 -53 16 -46 -1 3 -10 0 -13 -9 -10 -8 3 -13 10 -12 16 2 10 -5
11 -74 13 -22 1 -33 6 -33 16 0 8 5 11 10 8 6 -3 10 -1 10 5 0 6 7 10 16 8 10
-2 18 4 19 14 3 16 1 16 -25 3 -38 -20 -43 -19 -35 5 4 12 0 26 -9 36 -9 8
-16 12 -16 7 0 -4 -5 -1 -10 7 -8 12 -10 10 -10 -8 0 -16 -4 -21 -12 -16 -10
6 -10 4 0 -7 6 -7 12 -18 12 -23 0 -6 -5 -4 -10 4 -8 13 -12 12 -27 -4 -17
-19 -17 -19 1 -5 18 13 19 12 14 -15 -3 -17 -2 -40 3 -53 7 -18 5 -21 -8 -16
-13 5 -15 2 -9 -12 6 -17 5 -18 -11 -3 -12 11 -29 14 -52 11 -24 -4 -32 -2
-27 6 4 6 16 11 26 11 13 0 17 5 14 15 -4 8 -1 15 4 15 6 0 14 -9 17 -20 8
-26 21 -26 21 0 0 11 -7 21 -16 21 -44 5 -56 3 -71 -13 -9 -10 -20 -13 -29 -8
-9 6 -5 12 19 24 30 16 42 36 20 36 -5 0 -8 4 -5 9 3 4 -5 6 -17 4 -14 -3 -29
3 -41 16 -10 11 -25 17 -34 14 -12 -4 -10 1 7 20 19 21 26 24 42 14 22 -14 27
-9 39 32 6 22 5 31 -3 31 -8 0 -7 4 1 12 18 18 34 -8 29 -45 -2 -15 0 -27 5
-27 4 0 8 6 9 13 0 6 2 23 3 35 2 13 -4 31 -13 40 -15 14 -14 15 6 10 14 -4
24 -1 27 8 3 8 12 14 21 14 9 0 28 8 43 17 17 10 22 11 15 3 -7 -8 -13 -17
-13 -21 0 -13 29 -18 36 -7 4 7 3 8 -4 4 -7 -4 -12 -2 -12 3 0 6 5 11 10 11
18 0 11 28 -8 34 -10 4 -29 16 -41 27 l-22 21 -6 -21 c-3 -12 -9 -21 -14 -21
-13 0 -11 12 5 33 11 15 18 16 34 8 16 -8 21 -7 26 6 4 9 5 17 4 18 -9 7 -68
13 -67 7 3 -21 -3 -23 -21 -7 -11 10 -20 13 -20 7 0 -13 -53 -5 -58 9 -2 5
-10 15 -17 23 -8 7 -11 17 -7 21 4 5 1 5 -6 1 -9 -6 -10 -11 -2 -21 20 -24
-14 -22 -38 3 l-23 24 23 -7 c13 -4 20 -4 16 0 -4 4 -3 16 2 26 8 14 5 21 -11
32 -13 9 -16 17 -10 22 6 3 11 1 11 -4 0 -6 5 -11 11 -11 22 0 2 24 -26 32
-20 5 -32 3 -38 -5 -6 -8 -7 -6 -3 5 4 13 0 17 -17 17 -12 -1 -30 2 -40 6 -23
10 -23 -23 1 -41 16 -12 16 -13 -3 -10 -11 2 -25 -1 -31 -6 -8 -6 -8 3 1 29 7
20 19 39 27 42 18 8 19 102 0 109 -20 6 -14 22 9 22 14 0 19 5 16 15 -4 8 -3
16 1 19 12 7 45 -22 37 -33 -3 -6 -1 -11 4 -11 15 0 14 23 -1 39 -11 10 -9 15
5 26 10 7 19 22 22 33 2 11 13 37 25 58 12 22 18 30 14 19 -11 -35 -24 -92
-29 -139 -6 -44 -5 -46 20 -46 27 0 55 20 55 39 0 5 10 13 21 16 15 5 18 9 9
15 -19 12 -2 53 19 47 24 -6 46 13 48 43 1 13 10 31 20 38 10 7 17 18 15 24
-1 5 7 12 18 15 23 6 25 14 8 31 -6 6 -8 15 -4 19 4 4 11 1 16 -7 5 -8 10 -12
12 -10 18 26 49 92 41 87 -6 -4 -16 0 -23 9 -10 12 -11 17 -1 27 10 9 11 8 6
-5 -4 -10 -3 -18 3 -18 11 0 11 18 -1 38 -5 6 -5 18 -1 25 4 6 -1 5 -12 -4
-10 -9 -25 -14 -31 -12 -11 4 -18 -15 -14 -39 1 -8 -15 -12 -31 -9 -5 0 -8 -7
-8 -17 0 -13 -2 -14 -9 -3 -5 7 -14 10 -20 7 -6 -4 -10 -2 -9 5 2 6 -3 14 -9
16 -7 3 -13 0 -13 -7 0 -6 -4 -8 -10 -5 -5 3 -20 -1 -34 -10 -19 -13 -24 -23
-21 -48 2 -18 1 -27 -1 -21 -3 7 -14 9 -26 6 -18 -4 -20 -2 -16 16 4 12 2 22
-3 22 -5 0 -9 -4 -9 -9 0 -5 -8 -12 -17 -15 -10 -4 -14 -4 -10 0 4 4 2 13 -4
20 -8 10 -16 11 -31 3 -16 -9 -19 -8 -16 3 3 7 10 14 16 14 7 1 17 2 22 3 6 0
10 10 10 21 0 11 5 20 11 20 7 0 9 11 6 30 -6 28 5 41 17 21 7 -11 76 8 76 21
0 5 -9 4 -21 -3 -15 -8 -24 -8 -32 0 -8 8 -5 11 10 11 12 0 23 6 26 13 3 9 7
9 20 -1 9 -8 13 -20 10 -30 -6 -14 -5 -15 9 -2 14 12 14 17 4 25 -16 13 -12
41 8 64 9 10 13 20 10 24 -4 3 1 13 10 22 9 9 16 23 16 31 0 9 5 12 11 8 6 -3
15 0 20 7 8 12 11 12 19 -1 8 -13 10 -12 10 3 0 9 5 17 12 17 6 0 9 3 5 6 -5
5 10 27 41 59 6 8 12 20 13 27 0 9 2 10 6 1 3 -9 11 -6 26 8 l22 20 -25 19
c-22 17 -23 19 -7 26 12 4 16 12 11 26 -4 13 -2 18 4 14 6 -3 13 -2 17 4 3 5
15 10 27 10 15 0 19 5 15 20 -3 11 -1 23 4 26 5 3 9 -4 9 -15 0 -11 5 -23 12
-27 6 -4 8 -3 4 4 -3 5 0 12 6 15 10 3 10 7 -1 20 -9 11 -10 17 -2 17 6 0 11
-4 11 -9 0 -5 9 -7 20 -4 11 3 20 12 20 20 0 12 2 12 15 -1 8 -8 15 -19 15
-25 0 -6 7 -8 15 -5 8 4 15 2 15 -4 0 -8 18 -9 53 -3 4 0 7 6 7 12 0 8 -4 8
-12 1 -15 -11 -52 0 -64 19 -5 8 -3 10 7 4 18 -12 49 -14 43 -3 -3 4 0 9 5 9
6 1 16 3 21 4 6 1 15 3 20 4 6 0 10 8 10 16 0 8 7 15 15 15 8 0 15 5 15 11 0
5 -5 7 -12 3 -7 -5 -8 -3 -4 5 5 7 13 10 20 8 7 -3 29 3 49 13 27 14 39 15 44
6 5 -6 21 -17 36 -24 15 -7 25 -17 22 -22 -4 -6 -9 -8 -13 -6 -4 2 -15 -1 -24
-8 -16 -12 -16 -14 3 -29 18 -16 19 -16 19 4 0 19 1 19 16 5 18 -18 34 -21 34
-6 0 6 11 10 25 10 14 0 25 6 25 13 0 8 4 7 10 -3 6 -10 10 -11 10 -2 0 6 9
12 20 12 11 0 20 -5 20 -11 0 -7 16 5 35 25 20 22 40 35 47 31 7 -4 5 0 -4 8
-10 8 -18 19 -18 25 0 6 8 16 18 21 9 6 12 11 5 11 -6 0 -15 -4 -18 -10 -3 -5
-10 -10 -15 -10 -16 0 15 49 35 54 33 9 31 11 34 -31 1 -13 4 -14 9 -6 4 7 13
9 21 4 7 -5 10 -14 7 -20 -5 -8 2 -10 25 -6 41 7 48 13 29 25 -9 5 -19 5 -27
-2 -10 -8 -13 -6 -13 5 0 16 16 16 54 1 13 -5 17 -4 13 3 -4 6 -1 13 7 16 9 4
12 14 9 26 -4 17 -1 21 18 20 22 0 23 -1 4 -9z m115 0 c-7 -4 -9 -16 -6 -28
10 -29 -7 -35 -32 -12 -28 26 -20 45 19 46 18 1 26 -1 19 -6z m47 -19 c-1 -11
-8 -18 -21 -17 -20 1 -36 26 -17 26 6 0 11 -6 11 -12 0 -7 5 -5 11 5 13 22 18
22 16 -2z m-504 -59 c-11 -12 -22 -15 -28 -10 -11 10 10 28 33 28 8 0 6 -6 -5
-18z m-1193 -26 c0 -3 -4 -8 -10 -11 -5 -3 -10 -1 -10 4 0 6 5 11 10 11 6 0
10 -2 10 -4z m2177 -52 c-3 -3 -12 -4 -19 -1 -8 3 -5 6 6 6 11 1 17 -2 13 -5z
m-42 -14 c3 -5 1 -10 -4 -10 -6 0 -11 5 -11 10 0 6 2 10 4 10 3 0 8 -4 11 -10z
m-1475 -34 c0 -3 -4 -8 -10 -11 -5 -3 -10 -1 -10 4 0 6 5 11 10 11 6 0 10 -2
10 -4z m-1580 -66 c0 -5 -2 -10 -4 -10 -3 0 -8 5 -11 10 -3 6 -1 10 4 10 6 0
11 -4 11 -10z m35 -20 c-3 -5 -11 -10 -16 -10 -6 0 -7 5 -4 10 3 6 11 10 16
10 6 0 7 -4 4 -10z m1465 -45 c-8 -22 -7 -25 15 -25 43 0 36 -17 -8 -18 -39
-2 -42 0 -42 23 0 14 6 25 13 25 6 0 12 7 12 16 0 8 4 13 10 9 6 -4 6 -15 0
-30z m-446 0 c3 -8 1 -15 -4 -15 -6 0 -10 7 -10 15 0 8 2 15 4 15 2 0 6 -7 10
-15z m-284 -25 c0 -5 -4 -10 -10 -10 -5 0 -10 5 -10 10 0 6 5 10 10 10 6 0 10
-4 10 -10z m684 -5 c-7 -18 -20 -19 -30 -3 -4 6 -3 8 4 4 6 -3 13 -2 17 4 9
15 15 12 9 -5z m-94 -115 c0 -5 -5 -10 -11 -10 -5 0 -7 5 -4 10 3 6 8 10 11
10 2 0 4 -4 4 -10z m-170 -10 c0 -5 -7 -10 -16 -10 -8 0 -12 5 -9 10 3 6 10
10 16 10 5 0 9 -4 9 -10z m2350 -60 c0 -5 -2 -10 -4 -10 -3 0 -8 5 -11 10 -3
6 -1 10 4 10 6 0 11 -4 11 -10z m49 -19 c9 -6 11 -16 7 -27 -4 -10 -4 -15 0
-11 10 10 34 -13 33 -32 0 -12 -2 -11 -9 4 -5 11 -9 14 -9 6 -1 -11 -4 -11
-16 -1 -11 10 -15 10 -15 0 0 -17 -23 -7 -26 12 -1 9 5 19 14 23 15 6 15 8 -2
21 -22 16 -1 20 23 5z m-2374 -101 c3 -5 4 -14 0 -20 -8 -13 -35 -1 -35 16 0
16 26 19 35 4z m2405 -49 c0 -6 -4 -13 -10 -16 -5 -3 -10 -1 -10 5 0 6 -5 8
-12 4 -7 -4 -8 -3 -4 4 9 14 36 16 36 3z m-3110 -47 c0 -2 -7 -4 -15 -4 -8 0
-15 4 -15 10 0 5 7 7 15 4 8 -4 15 -8 15 -10z m320 -4 c0 -5 -4 -10 -10 -10
-5 0 -10 5 -10 10 0 6 5 10 10 10 6 0 10 -4 10 -10z m2845 -1 c18 -8 18 -8 -5
-7 -14 1 -30 -1 -37 -5 -6 -4 -19 -4 -30 0 -16 6 -15 8 7 14 33 9 42 9 65 -2z
m-2171 -38 c3 -5 -1 -14 -8 -20 -12 -10 -13 -8 -9 8 6 23 9 25 17 12z m-53
-34 c-10 -9 -11 -8 -5 6 3 10 9 15 12 12 3 -3 0 -11 -7 -18z m-936 -7 c3 -5
-3 -10 -15 -10 -12 0 -18 5 -15 10 3 6 10 10 15 10 5 0 12 -4 15 -10z m440 -1
c11 -17 0 -20 -21 -4 -17 13 -17 14 -2 15 9 0 20 -5 23 -11z m55 -23 c0 -3 -4
-8 -10 -11 -5 -3 -10 -1 -10 4 0 6 5 11 10 11 6 0 10 -2 10 -4z m280 -6 c0 -5
-4 -10 -10 -10 -5 0 -10 5 -10 10 0 6 5 10 10 10 6 0 10 -4 10 -10z m-97 -30
c3 -11 3 -20 1 -20 -2 0 -8 9 -14 20 -6 11 -7 20 -2 20 6 0 12 -9 15 -20z
m182 -39 c3 -5 1 -12 -5 -16 -5 -3 -10 1 -10 9 0 18 6 21 15 7z m-895 -11 c0
-5 -5 -10 -11 -10 -5 0 -7 5 -4 10 3 6 8 10 11 10 2 0 4 -4 4 -10z m650 0 c0
-5 -2 -10 -4 -10 -3 0 -8 5 -11 10 -3 6 -1 10 4 10 6 0 11 -4 11 -10z m270
-34 c0 -11 -19 -15 -25 -6 -3 5 1 10 9 10 9 0 16 -2 16 -4z m2394 -14 c3 -5
-1 -9 -9 -9 -8 0 -15 4 -15 9 0 4 4 8 9 8 6 0 12 -4 15 -8z m-2884 -32 c0 -5
-5 -10 -11 -10 -5 0 -7 5 -4 10 3 6 8 10 11 10 2 0 4 -4 4 -10z m120 0 c0 -5
-2 -10 -4 -10 -3 0 -8 5 -11 10 -3 6 -1 10 4 10 6 0 11 -4 11 -10z m50 6 c0
-2 -7 -7 -16 -10 -8 -3 -12 -2 -9 4 6 10 25 14 25 6z m84 -20 c-3 -9 -10 -16
-15 -16 -5 0 -4 9 3 20 14 22 21 20 12 -4z m2806 5 c0 -12 -20 -25 -27 -18 -7
7 6 27 18 27 5 0 9 -4 9 -9z m-153 -17 c-3 -3 -12 -4 -19 -1 -8 3 -5 6 6 6 11
1 17 -2 13 -5z m-3092 -34 c3 -5 1 -10 -4 -10 -6 0 -11 5 -11 10 0 6 2 10 4
10 3 0 8 -4 11 -10z m385 -28 c0 -5 -7 -17 -15 -28 -14 -19 -14 -19 -15 1 0
15 -2 17 -9 6 -5 -7 -14 -10 -20 -6 -9 5 -7 11 6 21 20 15 53 19 53 6z m20
-62 c0 -5 -4 -10 -10 -10 -5 0 -10 5 -10 10 0 6 5 10 10 10 6 0 10 -4 10 -10z
m-940 -20 c0 -5 -7 -10 -15 -10 -8 0 -15 5 -15 10 0 6 7 10 15 10 8 0 15 -4
15 -10z m3480 6 c0 -2 -7 -6 -15 -10 -8 -3 -15 -1 -15 4 0 6 7 10 15 10 8 0
15 -2 15 -4z m-2530 -12 c0 -8 -19 -13 -24 -6 -3 5 1 9 9 9 8 0 15 -2 15 -3z
m-160 -74 c0 -5 -5 -10 -11 -10 -5 0 -7 5 -4 10 3 6 8 10 11 10 2 0 4 -4 4
-10z m200 -41 c0 -6 -4 -7 -10 -4 -5 3 -10 11 -10 16 0 6 5 7 10 4 6 -3 10
-11 10 -16z m2689 -21 c0 -31 -1 -31 -10 -10 -5 13 -7 28 -3 33 10 16 14 9 13
-23z m-19 -8 c0 -5 -4 -10 -10 -10 -5 0 -10 5 -10 10 0 6 5 10 10 10 6 0 10
-4 10 -10z m-2860 -10 c0 -5 -4 -10 -10 -10 -5 0 -10 5 -10 10 0 6 5 10 10 10
6 0 10 -4 10 -10z m2418 -22 c2 -9 -6 -18 -18 -21 -16 -4 -20 -2 -16 10 3 8 6
19 6 25 0 15 25 3 28 -14z m-2328 -3 c0 -8 -4 -15 -10 -15 -5 0 -7 7 -4 15 4
8 8 15 10 15 2 0 4 -7 4 -15z m2446 -32 c-10 -10 -19 5 -10 18 6 11 8 11 12 0
2 -7 1 -15 -2 -18z m-2396 -14 c0 -10 -7 -19 -15 -19 -9 0 -14 9 -13 24 3 28
28 24 28 -5z m-55 11 c3 -6 -1 -7 -9 -4 -18 7 -21 14 -7 14 6 0 13 -4 16 -10z
m165 0 c0 -5 -4 -10 -10 -10 -5 0 -10 5 -10 10 0 6 5 10 10 10 6 0 10 -4 10
-10z m1730 0 c0 -5 9 -10 20 -10 11 0 20 -4 20 -10 0 -5 -3 -9 -7 -9 -28 4
-43 -3 -43 -21 0 -20 -1 -20 -25 -4 -25 16 -34 44 -15 44 6 0 10 -4 10 -10 0
-5 8 -6 17 -3 11 4 12 8 5 11 -17 5 -15 22 3 22 8 0 15 -4 15 -10z m240 0 c0
-5 -1 -11 -2 -12 -1 -2 4 -13 11 -26 9 -16 9 -27 1 -40 -11 -16 -11 -16 -6 1
6 20 -16 61 -27 50 -4 -3 -7 0 -7 9 0 8 3 18 7 21 10 10 23 8 23 -3z m200 -5
c0 -17 -2 -18 -25 -9 -13 5 -14 8 -3 15 19 13 28 11 28 -6z m80 -25 c-20 -12
-33 -1 -19 16 9 11 15 12 23 4 8 -8 7 -13 -4 -20z m-40 10 c0 -5 -4 -10 -10
-10 -5 0 -10 5 -10 10 0 6 5 10 10 10 6 0 10 -4 10 -10z m-2097 -8 c2 7 4 0 4
-15 0 -15 0 -27 -1 -25 -1 2 -10 14 -21 28 -14 17 -15 21 -3 12 13 -10 17 -10
21 0z m37 -2 c0 -5 -4 -10 -10 -10 -5 0 -10 5 -10 10 0 6 5 10 10 10 6 0 10
-4 10 -10z m1930 0 c0 -5 -5 -10 -11 -10 -5 0 -7 5 -4 10 3 6 8 10 11 10 2 0
4 -4 4 -10z m-160 -4 c0 -3 -4 -8 -10 -11 -5 -3 -10 -1 -10 4 0 6 5 11 10 11
6 0 10 -2 10 -4z m110 -11 c0 -12 -19 -12 -23 0 -4 9 -1 12 9 8 7 -3 14 -7 14
-8z m-1964 -32 c-11 -11 -19 6 -11 24 8 17 8 17 12 0 3 -10 2 -21 -1 -24z
m2159 27 c4 -7 13 -6 27 1 15 8 23 8 32 -2 8 -9 8 -10 -1 -5 -7 4 -21 1 -32
-6 -17 -11 -23 -10 -38 5 -10 9 -12 17 -6 17 7 0 15 -5 18 -10z m99 -6 c3 -8
2 -12 -4 -9 -6 3 -10 10 -10 16 0 14 7 11 14 -7z m-364 -21 c0 -20 -3 -24 -9
-14 -7 10 -12 9 -23 -8 -13 -19 -16 -20 -22 -6 -7 19 19 49 34 40 5 -3 10 -1
10 4 0 6 2 11 5 11 3 0 5 -12 5 -27z m115 18 c3 -5 1 -12 -5 -16 -5 -3 -10 1
-10 9 0 18 6 21 15 7z m342 -17 c-9 -9 -28 6 -21 18 4 6 10 6 17 -1 6 -6 8
-13 4 -17z m-207 1 c0 -8 -6 -15 -14 -15 -17 0 -28 14 -19 24 12 12 33 6 33
-9z m-360 -5 c0 -5 -2 -10 -4 -10 -3 0 -8 5 -11 10 -3 6 -1 10 4 10 6 0 11 -4
11 -10z m194 1 c8 -12 -3 -41 -15 -41 -5 0 -9 11 -9 25 0 25 14 34 24 16z
m-2119 -39 c-6 -7 -34 11 -29 19 3 5 11 3 19 -4 7 -6 12 -13 10 -15z m295 18
c-20 -13 -33 -13 -25 0 3 6 14 10 23 10 15 0 15 -2 2 -10z m2290 0 c0 -5 -2
-10 -4 -10 -3 0 -8 5 -11 10 -3 6 -1 10 4 10 6 0 11 -4 11 -10z m-2520 -10 c0
-5 -4 -10 -10 -10 -5 0 -10 5 -10 10 0 6 5 10 10 10 6 0 10 -4 10 -10z m2015
0 c-3 -5 -14 -10 -23 -9 -14 0 -13 2 3 9 27 11 27 11 20 0z m372 -17 c-2 -17
-9 -29 -20 -31 -19 -4 -22 10 -7 39 15 28 29 23 27 -8z m-37 8 c0 -17 -18 -21
-24 -6 -3 9 0 15 9 15 8 0 15 -4 15 -9z m79 -5 c9 -11 9 -16 0 -22 -8 -4 -9
-3 -5 4 4 7 2 12 -3 12 -6 0 -11 5 -11 10 0 14 5 13 19 -4z m-2551 -24 c2 -7
-2 -10 -12 -6 -9 3 -16 11 -16 16 0 13 23 5 28 -10z m52 5 c12 3 20 0 20 -6 0
-7 -4 -10 -9 -7 -5 4 -11 1 -13 -6 -4 -10 -9 -9 -21 3 -9 9 -13 20 -9 23 4 4
8 3 10 -2 2 -6 12 -8 22 -5z m1958 1 c-3 -7 -14 -17 -26 -23 -12 -5 -22 -13
-22 -18 0 -4 5 -5 10 -2 6 3 10 1 10 -5 0 -7 -6 -10 -12 -7 -20 6 -16 42 5 41
9 -1 17 4 17 12 0 8 5 14 11 14 6 0 9 -6 7 -12z m-1896 -28 c-21 -20 -42 -26
-42 -12 0 7 37 28 54 31 6 0 0 -8 -12 -19z m2464 5 c-7 -18 8 -20 26 -2 16 14
68 20 68 6 0 -5 -5 -9 -11 -9 -6 0 -4 -7 5 -15 8 -8 17 -15 20 -15 3 0 3 7 0
15 -4 8 -1 15 5 15 14 0 14 -21 1 -55 -7 -18 -7 -33 0 -45 9 -17 7 -19 -17
-19 -49 -1 -73 -5 -73 -14 0 -4 -6 -2 -14 5 -10 9 -11 15 -2 20 7 5 5 8 -6 8
-9 0 -23 3 -31 6 -10 3 -17 -2 -20 -13 -3 -10 -5 -3 -6 16 -1 23 -5 32 -14 28
-7 -3 -13 3 -14 14 -2 23 13 34 24 17 8 -13 9 -16 12 -40 2 -7 6 -4 10 7 5 12
4 26 -3 34 -9 12 -8 13 8 8 15 -6 17 -4 13 13 -3 11 -1 18 4 14 5 -3 9 0 9 5
0 6 3 11 6 11 3 0 4 -7 0 -15z m824 -1 c0 -8 -5 -12 -10 -9 -6 4 -8 11 -5 16
9 14 15 11 15 -7z m-3198 -19 c-2 -14 -8 -22 -13 -19 -5 3 -5 14 1 25 14 26
18 24 12 -6z m3468 15 c0 -5 -5 -10 -11 -10 -5 0 -7 5 -4 10 3 6 8 10 11 10 2
0 4 -4 4 -10z m-3525 -19 c-3 -5 2 -16 10 -25 9 -8 11 -17 6 -21 -12 -7 -34
32 -26 45 3 6 8 10 11 10 3 0 3 -4 -1 -9z m2320 -1 c3 -5 1 -10 -4 -10 -6 0
-11 5 -11 10 0 6 2 10 4 10 3 0 8 -4 11 -10z m-27 -17 c-2 -10 3 -17 10 -15 6
1 12 -2 12 -8 0 -15 -12 -12 -40 11 -14 11 -20 18 -13 15 6 -4 14 -2 18 4 10
16 16 12 13 -7z m-2385 -6 c3 -8 -1 -14 -8 -14 -7 0 -11 6 -8 14 3 7 6 13 8
13 2 0 5 -6 8 -13z m2967 5 c0 -13 -12 -22 -22 -16 -10 6 -1 24 13 24 5 0 9
-4 9 -8z m-3848 -17 c0 -5 -5 -11 -11 -13 -6 -2 -11 4 -11 13 0 9 5 15 11 13
6 -2 11 -8 11 -13z m618 -5 c0 -5 -5 -10 -11 -10 -5 0 -7 5 -4 10 3 6 8 10 11
10 2 0 4 -4 4 -10z m228 -7 c-2 -9 -8 -18 -15 -20 -7 -3 -9 3 -6 16 6 25 26
28 21 4z m-948 -3 c0 -5 -2 -10 -4 -10 -3 0 -8 5 -11 10 -3 6 -1 10 4 10 6 0
11 -4 11 -10z m909 -12 c-14 -25 -25 -29 -39 -13 -16 19 -5 33 24 31 19 -1 22
-4 15 -18z m81 -4 c0 -8 -4 -12 -10 -9 -5 3 -10 10 -10 16 0 5 5 9 10 9 6 0
10 -7 10 -16z m50 2 c0 -3 -4 -8 -10 -11 -5 -3 -10 -1 -10 4 0 6 5 11 10 11 6
0 10 -2 10 -4z m2319 -13 c-24 -32 -50 -55 -56 -50 -6 7 48 65 61 66 5 1 2 -7
-5 -16z m81 -22 c0 -6 -4 -11 -10 -11 -5 0 -10 4 -10 9 0 5 -9 7 -20 4 -11 -3
-20 -10 -20 -15 0 -5 5 -6 11 -3 6 4 5 -3 -3 -14 -13 -21 -13 -21 -18 6 -4 20
-1 30 11 35 9 4 20 11 24 17 7 13 35 -10 35 -28z m-2424 0 c-3 -5 -15 -7 -26
-4 -28 7 -25 13 6 13 14 0 23 -4 20 -9z m2204 -11 c0 -5 -5 -10 -11 -10 -5 0
-7 5 -4 10 3 6 8 10 11 10 2 0 4 -4 4 -10z m55 -8 c-3 -3 -11 0 -18 7 -9 10
-8 11 6 5 10 -3 15 -9 12 -12z m-2188 2 c-3 -3 -12 -4 -19 -1 -8 3 -5 6 6 6
11 1 17 -2 13 -5z m233 -4 c0 -5 -5 -10 -11 -10 -5 0 -7 5 -4 10 3 6 8 10 11
10 2 0 4 -4 4 -10z m-450 -30 c0 -5 -9 -8 -20 -7 -20 1 -25 8 -14 20 8 7 34
-3 34 -13z m160 16 c0 -3 -4 -8 -10 -11 -5 -3 -10 -1 -10 4 0 6 5 11 10 11 6
0 10 -2 10 -4z m56 -28 c-18 -26 -22 -17 -5 14 6 11 13 17 16 15 3 -3 -2 -16
-11 -29z m2377 6 c-7 -20 -20 -17 -26 5 -3 14 0 17 14 14 10 -3 15 -11 12 -19z
m-193 7 c0 -6 -4 -13 -10 -16 -5 -3 -10 1 -10 9 0 9 5 16 10 16 6 0 10 -4 10
-9z m-2370 -11 c0 -5 -4 -10 -10 -10 -5 0 -10 5 -10 10 0 6 5 10 10 10 6 0 10
-4 10 -10z m33 -24 c-3 -4 -9 -2 -14 5 -13 22 -11 31 5 17 8 -7 12 -17 9 -22z
m2267 12 c0 -16 -3 -19 -11 -11 -6 6 -8 16 -5 22 11 17 16 13 16 -11z m40 12
c0 -5 -4 -10 -10 -10 -5 0 -10 5 -10 10 0 6 5 10 10 10 6 0 10 -4 10 -10z
m-2207 -10 c-8 -8 -72 -6 -66 2 2 5 19 7 38 5 18 -1 31 -4 28 -7z m293 -17
c-10 -10 -19 5 -10 18 6 11 8 11 12 0 2 -7 1 -15 -2 -18z m2074 -48 c10 6 35
-23 27 -31 -3 -4 -14 1 -23 11 -17 16 -18 16 -26 -4 -8 -22 -28 -29 -28 -10 0
5 5 7 10 4 21 -13 9 35 -15 61 -14 15 -25 31 -25 37 0 5 16 -9 36 -32 20 -22
40 -39 44 -36z m-2550 55 c0 -5 -5 -10 -11 -10 -5 0 -7 5 -4 10 3 6 8 10 11
10 2 0 4 -4 4 -10z m246 -16 c-22 -15 -36 -18 -36 -6 0 9 43 30 50 24 3 -2 -4
-10 -14 -18z m2225 -1 c12 -16 12 -17 -2 -6 -9 7 -19 10 -22 6 -4 -3 -7 -1 -7
5 0 17 16 15 31 -5z m-2891 -3 c0 -5 -4 -10 -10 -10 -5 0 -10 5 -10 10 0 6 5
10 10 10 6 0 10 -4 10 -10z m615 -12 c7 -7 1 -9 -17 -4 -23 5 -27 3 -21 -11 5
-15 3 -14 -10 2 -8 11 -13 23 -10 28 6 9 44 -1 58 -15z m-521 -10 c9 -34 7
-60 -4 -53 -5 3 -7 12 -4 19 3 8 1 17 -5 21 -13 8 -15 35 -2 35 5 0 11 -10 15
-22z m815 -22 c-1 -15 -3 -16 -6 -5 -3 11 -11 15 -24 12 -21 -6 -25 7 -7 25
16 16 38 -3 37 -32z m-859 24 c0 -5 -4 -10 -9 -10 -5 0 -12 -10 -16 -22 -6
-19 -8 -20 -12 -6 -2 10 2 24 9 32 15 18 28 20 28 6z m3110 -20 c0 -5 -4 -10
-10 -10 -5 0 -10 5 -10 10 0 6 5 10 10 10 6 0 10 -4 10 -10z m40 0 c8 -5 12
-12 9 -15 -8 -8 -39 5 -39 16 0 11 11 11 30 -1z m205 -10 c-3 -5 -11 -10 -16
-10 -6 0 -7 5 -4 10 3 6 11 10 16 10 6 0 7 -4 4 -10z m-2845 -4 c0 -2 -7 -6
-15 -10 -8 -3 -15 -1 -15 4 0 6 7 10 15 10 8 0 15 -2 15 -4z m220 0 c0 -3 -4
-8 -10 -11 -5 -3 -10 -1 -10 4 0 6 5 11 10 11 6 0 10 -2 10 -4z m3070 -6 c0
-5 -5 -10 -11 -10 -5 0 -7 5 -4 10 3 6 8 10 11 10 2 0 4 -4 4 -10z m-3220 -9
c0 -14 -18 -23 -30 -16 -6 4 -8 11 -5 16 8 12 35 12 35 0z m230 -1 c0 -5 -5
-10 -11 -10 -5 0 -7 5 -4 10 3 6 8 10 11 10 2 0 4 -4 4 -10z m1910 -24 c0 -3
-4 -8 -10 -11 -5 -3 -10 -1 -10 4 0 6 5 11 10 11 6 0 10 -2 10 -4z m210 -10
c0 -3 -4 -8 -10 -11 -5 -3 -10 -1 -10 4 0 6 5 11 10 11 6 0 10 -2 10 -4z m87
-2 c-3 -3 -12 -4 -19 -1 -8 3 -5 6 6 6 11 1 17 -2 13 -5z m-2345 -36 c-7 -7
-10 -5 -7 8 5 29 6 30 12 16 3 -8 1 -18 -5 -24z m-769 2 c-3 -12 -8 -19 -11
-16 -5 6 5 36 12 36 2 0 2 -9 -1 -20z m-319 -6 c3 -8 2 -12 -4 -9 -6 3 -10 10
-10 16 0 14 7 11 14 -7z m3296 7 c0 -18 -66 -35 -76 -19 -3 4 4 8 15 8 11 0
23 5 26 10 8 12 35 13 35 1z m-2930 -25 c0 -3 -4 -8 -10 -11 -5 -3 -10 -1 -10
4 0 6 5 11 10 11 6 0 10 -2 10 -4z m2933 -9 c3 -7 -3 -13 -14 -13 -13 0 -15 3
-7 13 6 7 12 13 13 13 2 0 5 -6 8 -13z m-2938 -21 c7 3 22 1 32 -5 12 -7 13
-11 4 -11 -7 0 -11 -6 -7 -15 3 -9 0 -15 -9 -15 -8 0 -17 -11 -21 -25 l-6 -25
-25 20 c-14 11 -37 20 -52 21 -24 0 -25 1 -5 9 12 5 28 22 35 38 11 25 15 27
26 16 8 -7 20 -11 28 -8z m425 4 c0 -5 -4 -10 -10 -10 -5 0 -10 5 -10 10 0 6
5 10 10 10 6 0 10 -4 10 -10z m2565 -20 c3 -5 1 -10 -4 -10 -6 0 -11 5 -11 10
0 6 2 10 4 10 3 0 8 -4 11 -10z m-3475 -20 c0 -5 -4 -10 -10 -10 -5 0 -10 5
-10 10 0 6 5 10 10 10 6 0 10 -4 10 -10z m3260 -2 c0 -19 -13 -33 -32 -36 -10
-2 -18 3 -18 11 0 8 8 14 18 13 9 0 16 5 15 12 -2 6 2 12 7 12 6 0 10 -6 10
-12z m-2560 -8 c0 -5 -7 -10 -15 -10 -8 0 -15 5 -15 10 0 6 7 10 15 10 8 0 15
-4 15 -10z m-795 -18 c-3 -3 -11 0 -18 7 -9 10 -8 11 6 5 10 -3 15 -9 12 -12z
m362 -18 c-9 -9 -28 6 -21 18 4 6 10 6 17 -1 6 -6 8 -13 4 -17z m518 17 c3 -5
1 -12 -5 -16 -5 -3 -10 1 -10 9 0 18 6 21 15 7z m2390 -11 c-4 -11 -2 -20 4
-20 6 0 11 6 12 13 0 8 2 8 5 1 3 -7 13 -11 22 -9 9 1 12 0 5 -2 -7 -2 -11
-10 -9 -16 1 -7 1 -9 -1 -4 -3 4 -9 5 -13 2 -16 -10 -48 17 -42 37 2 10 9 18
14 18 5 0 6 -9 3 -20z m-3135 -5 c0 -1 -9 -12 -20 -25 -19 -22 -20 -22 -20 -3
0 11 2 22 5 25 5 4 35 7 35 3z m510 -11 c0 -8 -5 -12 -10 -9 -6 4 -8 11 -5 16
9 14 15 11 15 -7z m155 -4 c3 -5 1 -10 -4 -10 -6 0 -11 5 -11 10 0 6 2 10 4
10 3 0 8 -4 11 -10z m-312 -26 c21 -8 22 -18 2 -34 -22 -18 -45 -5 -45 26 0
17 4 24 13 20 6 -3 20 -9 30 -12z m-162 -14 c28 -16 24 -38 -7 -34 -32 3 -38
9 -31 29 7 18 12 18 38 5z m-261 -20 c0 -11 -4 -20 -9 -20 -14 0 -23 18 -16
30 10 17 25 11 25 -10z m3955 10 c-3 -5 -11 -10 -16 -10 -6 0 -7 5 -4 10 3 6
11 10 16 10 6 0 7 -4 4 -10z m-3215 -10 c0 -5 -2 -10 -4 -10 -3 0 -8 5 -11 10
-3 6 -1 10 4 10 6 0 11 -4 11 -10z m-667 -32 c19 4 23 -13 5 -22 -7 -3 -1 -4
15 -1 19 4 27 1 27 -8 0 -8 8 -21 18 -30 14 -13 21 -14 30 -5 10 10 14 8 18
-10 4 -12 10 -22 15 -22 23 0 5 -37 -24 -50 -24 -11 -31 -21 -30 -37 2 -14 -3
-23 -11 -23 -7 0 -16 -9 -19 -20 -6 -24 -20 -26 -40 -5 -8 8 -17 11 -21 8 -3
-4 -6 -1 -6 5 0 7 -20 17 -44 23 -36 9 -47 17 -55 41 -13 37 -4 78 17 78 13 0
12 3 -4 16 -10 8 -13 13 -6 9 6 -3 12 -1 12 5 0 6 4 9 9 5 6 -3 13 0 18 7 4 7
14 13 21 13 6 0 12 5 11 10 -1 6 -5 9 -10 8 -14 -4 -11 15 4 20 6 3 17 -1 22
-7 6 -6 18 -10 28 -8z m117 -13 c0 -8 -2 -15 -4 -15 -2 0 -6 7 -10 15 -3 8 -1
15 4 15 6 0 10 -7 10 -15z m250 -25 c0 -5 -4 -10 -10 -10 -5 0 -10 5 -10 10 0
6 5 10 10 10 6 0 10 -4 10 -10z m75 -41 c11 -16 1 -19 -13 -3 -7 8 -8 14 -3
14 5 0 13 -5 16 -11z m3105 -19 c0 -5 -5 -10 -11 -10 -5 0 -7 5 -4 10 3 6 8
10 11 10 2 0 4 -4 4 -10z m290 0 c0 -5 -5 -10 -11 -10 -5 0 -7 5 -4 10 3 6 8
10 11 10 2 0 4 -4 4 -10z m-3020 -15 c0 -8 -4 -15 -9 -15 -13 0 -22 16 -14 24
11 11 23 6 23 -9z m-490 -5 c0 -5 -4 -10 -10 -10 -5 0 -10 5 -10 10 0 6 5 10
10 10 6 0 10 -4 10 -10z m430 -20 c0 -5 -5 -10 -11 -10 -5 0 -7 5 -4 10 3 6 8
10 11 10 2 0 4 -4 4 -10z m2646 -27 c-4 -4 -11 -1 -16 7 -16 25 -11 35 7 17 9
-9 13 -20 9 -24z m-3141 -29 c-8 -9 -15 -20 -15 -25 0 -5 -5 -9 -11 -9 -5 0
-8 4 -5 9 4 5 2 11 -3 13 -5 1 -7 16 -4 31 4 19 10 26 19 23 8 -3 14 0 15 7 0
7 4 2 10 -11 6 -17 5 -27 -6 -38z m755 20 c0 -8 -5 -12 -10 -9 -6 4 -8 11 -5
16 9 14 15 11 15 -7z m2314 -6 c-5 -8 -1 -9 12 -4 14 5 16 4 7 -5 -13 -13 -37
-3 -28 12 4 5 8 9 11 9 3 0 2 -5 -2 -12z m-3124 -18 c0 -5 -2 -10 -4 -10 -3 0
-8 5 -11 10 -3 6 -1 10 4 10 6 0 11 -4 11 -10z m622 -2 c3 -7 15 -13 29 -13
33 0 38 -36 7 -50 -13 -6 -22 -16 -20 -23 1 -7 -3 -12 -9 -12 -14 0 -52 21
-60 33 -8 12 1 47 12 47 5 0 9 7 9 15 0 18 27 20 32 3z m-702 -28 c0 -11 -5
-20 -11 -20 -6 0 -9 6 -6 14 3 8 1 17 -6 20 -7 2 -4 5 6 5 11 1 17 -6 17 -19z
m3900 0 c0 -5 -7 -10 -16 -10 -8 0 -12 5 -9 10 3 6 10 10 16 10 5 0 9 -4 9
-10z m-660 -37 c0 -7 -7 -13 -15 -13 -10 0 -14 7 -11 23 3 12 5 24 5 27 2 9
21 -25 21 -37z m480 27 c0 -5 -4 -10 -10 -10 -5 0 -10 5 -10 10 0 6 5 10 10
10 6 0 10 -4 10 -10z m-3900 -26 c0 -8 -4 -14 -9 -14 -6 0 -9 9 -8 19 1 22 17
18 17 -5z m-30 12 c0 -3 -4 -8 -10 -11 -5 -3 -10 -1 -10 4 0 6 5 11 10 11 6 0
10 -2 10 -4z m161 -29 c-8 -8 -16 -7 -27 5 -14 14 -14 15 11 10 19 -3 23 -8
16 -15z m49 14 c0 -6 -4 -13 -10 -16 -5 -3 -10 1 -10 9 0 9 5 16 10 16 6 0 10
-4 10 -9z m210 -1 c0 -5 -4 -10 -10 -10 -5 0 -10 5 -10 10 0 6 5 10 10 10 6 0
10 -4 10 -10z m350 -6 c0 -8 -5 -12 -10 -9 -6 4 -8 11 -5 16 9 14 15 11 15 -7z
m-483 -16 c-3 -8 -6 -5 -6 6 -1 11 2 17 5 13 3 -3 4 -12 1 -19z m60 2 c-5 -18
-3 -18 18 -4 22 14 24 14 34 -4 7 -14 6 -24 -5 -40 -9 -13 -11 -23 -4 -27 5
-3 10 -15 10 -26 0 -14 -7 -19 -30 -19 -19 0 -29 5 -27 13 1 7 -7 11 -20 10
-13 -2 -23 2 -23 7 0 5 -8 7 -17 3 -17 -6 -17 -5 0 14 10 11 17 24 15 29 -2 5
2 10 7 12 6 1 10 -2 10 -7 0 -5 3 -13 8 -17 8 -8 10 6 7 49 -1 15 4 27 10 27
7 0 10 -8 7 -20z m132 -2 c0 -13 -3 -17 -6 -10 -2 6 -9 10 -14 6 -5 -3 -9 2
-9 10 0 9 7 16 15 16 9 0 15 -9 14 -22z m148 0 c-3 -8 -6 -5 -6 6 -1 11 2 17
5 13 3 -3 4 -12 1 -19z m389 -20 c4 -7 3 -8 -4 -4 -8 5 -12 -2 -12 -18 0 -29
-21 -34 -40 -11 -10 12 -10 21 -2 41 10 21 15 23 31 14 11 -5 23 -15 27 -22z
m-746 12 c0 -5 -4 -10 -10 -10 -5 0 -10 5 -10 10 0 6 5 10 10 10 6 0 10 -4 10
-10z m3120 6 c0 -3 -4 -8 -10 -11 -5 -3 -10 -1 -10 4 0 6 5 11 10 11 6 0 10
-2 10 -4z m-30 -20 c0 -3 -4 -8 -10 -11 -5 -3 -10 -1 -10 4 0 6 5 11 10 11 6
0 10 -2 10 -4z m-2895 -26 c3 -5 -1 -10 -9 -10 -9 0 -16 5 -16 10 0 6 4 10 9
10 6 0 13 -4 16 -10z m3165 -24 c0 -11 -19 -15 -25 -6 -3 5 1 10 9 10 9 0 16
-2 16 -4z m-3499 -26 c10 0 21 -4 24 -10 7 -12 -40 -62 -50 -52 -4 4 -11 7
-17 7 -6 0 -15 7 -21 16 -12 19 22 62 38 48 5 -5 17 -9 26 -9z m579 -1 c0 -5
-4 -9 -10 -9 -5 0 -10 7 -10 16 0 8 5 12 10 9 6 -3 10 -10 10 -16z m2640 11
c0 -5 -4 -10 -10 -10 -5 0 -10 5 -10 10 0 6 5 10 10 10 6 0 10 -4 10 -10z
m-2232 -20 c3 -8 1 -12 -3 -8 -4 4 -17 -2 -28 -15 -16 -18 -19 -18 -14 -4 4
10 7 25 7 34 0 19 32 13 38 -7z m-918 6 c0 -3 -4 -8 -10 -11 -5 -3 -10 -1 -10
4 0 6 5 11 10 11 6 0 10 -2 10 -4z m480 -38 c0 -5 -4 -8 -10 -8 -5 0 -10 10
-10 23 0 18 2 19 10 7 5 -8 10 -18 10 -22z m170 22 c0 -5 -6 -10 -14 -10 -8 0
-18 5 -21 10 -3 6 3 10 14 10 12 0 21 -4 21 -10z m160 -1 c13 -9 13 -10 -2 -6
-9 3 -19 1 -21 -6 -2 -7 -8 -9 -12 -5 -8 7 2 28 13 28 4 0 14 -5 22 -11z
m2190 -3 c0 -3 -4 -8 -10 -11 -5 -3 -10 -1 -10 4 0 6 5 11 10 11 6 0 10 -2 10
-4z m-2960 -16 c0 -5 -7 -10 -15 -10 -8 0 -15 5 -15 10 0 6 7 10 15 10 8 0 15
-4 15 -10z m49 -24 c8 -10 9 -16 1 -21 -12 -7 -42 19 -33 29 10 10 20 7 32 -8z
m408 -11 c-4 -8 -11 -15 -17 -15 -14 0 -13 27 3 33 16 6 21 1 14 -18z m133 15
c0 -5 -7 -10 -16 -10 -8 0 -12 5 -9 10 3 6 10 10 16 10 5 0 9 -4 9 -10z m-90
-32 c0 -5 -4 -8 -10 -8 -5 0 -10 10 -10 23 0 18 2 19 10 7 5 -8 10 -18 10 -22z
m195 12 c23 -9 25 -13 15 -25 -24 -29 -69 -13 -56 20 6 18 7 18 41 5z m115 -4
c0 -3 -4 -8 -10 -11 -5 -3 -10 -1 -10 4 0 6 5 11 10 11 6 0 10 -2 10 -4z m140
-5 c0 -5 -7 -11 -14 -14 -10 -4 -13 -1 -9 9 6 15 23 19 23 5z m-361 -24 c-21
-20 -25 -62 -7 -73 7 -4 8 -3 4 4 -4 7 -2 12 3 12 6 0 11 -5 11 -11 0 -8 4 -8
14 0 10 8 16 9 21 1 3 -5 15 -10 27 -10 14 0 18 -5 14 -15 -3 -9 1 -18 9 -21
8 -4 15 -13 15 -21 0 -8 5 -11 10 -8 6 3 10 2 10 -4 0 -5 9 -13 20 -16 11 -4
18 -11 14 -16 -15 -24 -21 -66 -10 -66 6 0 20 -1 31 -2 17 -1 18 -3 5 -11 -11
-7 -12 -10 -2 -10 9 0 11 -7 7 -21 -6 -19 -5 -20 8 -8 8 8 13 17 11 21 -10 16
9 36 32 34 37 -4 41 -16 6 -16 -29 0 -31 -2 -28 -31 2 -17 10 -35 17 -40 22
-13 24 0 3 15 -18 14 -17 14 9 12 28 -3 51 -16 29 -16 -7 0 -12 -8 -12 -17 0
-15 2 -15 9 -4 5 8 16 11 26 8 9 -4 13 -12 9 -18 -5 -8 -3 -9 5 -5 7 5 10 14
8 20 -3 7 -1 19 3 26 5 7 4 24 -1 37 -10 28 7 22 29 -9 7 -10 19 -18 26 -18 7
0 13 -7 13 -15 0 -8 -5 -11 -10 -8 -6 4 -7 -5 -3 -23 4 -20 4 -24 -3 -15 -13
20 -41 23 -41 5 0 -9 5 -12 11 -9 5 4 19 -3 30 -16 17 -20 24 -19 20 3 0 4 7
4 16 1 11 -4 13 -8 5 -11 -7 -2 -12 -8 -12 -13 0 -6 4 -8 9 -4 19 11 23 -17 5
-36 -16 -18 -16 -20 1 -39 13 -14 22 -17 29 -10 14 14 26 12 26 -5 0 -9 6 -12
15 -9 8 4 15 1 15 -5 0 -6 -5 -11 -11 -11 -6 0 -9 -6 -6 -12 3 -9 -7 -14 -27
-15 -69 -5 -96 -23 -96 -64 0 -11 -9 -19 -22 -21 -39 -5 -34 -67 5 -68 4 0 6
3 6 8 -3 17 2 32 10 32 12 0 11 -72 -1 -88 -6 -6 -19 -12 -29 -12 -10 0 -23
-9 -29 -19 -11 -22 -25 -28 -94 -37 -30 -4 -46 -2 -42 4 3 5 -6 10 -19 11 -55
3 -60 4 -67 15 -5 7 -8 4 -8 -6 0 -25 -30 -57 -46 -51 -8 3 -14 11 -14 19 0 8
-8 15 -17 16 -10 0 -23 2 -30 2 -6 1 -15 5 -20 10 -5 5 -2 6 6 1 9 -5 12 -4 7
3 -11 19 -37 14 -43 -8 -3 -11 -9 -17 -15 -14 -5 3 -4 12 3 20 9 11 7 14 -10
14 -11 0 -21 5 -21 11 0 8 -5 8 -15 -1 -12 -10 -15 -9 -15 5 0 14 -3 15 -15 5
-8 -6 -19 -9 -25 -5 -5 3 -10 -1 -10 -9 0 -8 -5 -18 -12 -22 -6 -4 -8 -3 -4 4
3 6 -1 17 -9 25 -18 18 -20 53 -4 63 8 5 7 9 -1 14 -11 7 -11 17 0 54 7 25 16
43 21 40 5 -3 9 3 10 13 0 10 3 13 6 6 3 -8 13 -4 28 13 23 25 24 44 3 70 -10
14 0 44 21 62 13 11 13 12 1 6 -13 -7 -13 -5 -1 9 10 13 10 17 1 17 -8 0 -10
8 -6 25 4 14 2 25 -4 25 -5 0 -10 7 -10 15 0 8 5 15 10 15 6 0 10 7 10 15 0 8
5 15 10 15 6 0 10 -5 10 -11 0 -5 5 -7 12 -3 8 5 9 2 5 -9 -15 -36 -20 -52
-16 -47 2 3 15 18 29 34 14 16 19 26 13 22 -7 -4 -13 -3 -13 3 0 5 8 12 18 14
13 4 12 5 -5 6 -16 1 -20 6 -16 20 3 12 -4 29 -16 42 -19 21 -20 25 -6 43 9
12 20 34 26 49 7 17 17 26 25 23 32 -12 21 44 -14 70 -11 8 -12 15 -4 31 9 16
20 20 56 19 43 -1 44 -2 25 -19z m161 9 c0 -8 -6 -16 -14 -19 -10 -4 -12 0 -9
14 6 22 23 26 23 5z m134 -1 c-7 -16 -24 -21 -24 -6 0 8 7 13 27 20 1 1 0 -6
-3 -14z m-436 -36 c7 -11 8 -19 2 -19 -5 0 -10 4 -10 9 0 5 -9 11 -20 14 -11
3 -20 10 -20 15 0 16 35 3 48 -19z m3032 21 c0 -5 -7 -10 -16 -10 -8 0 -12 5
-9 10 3 6 10 10 16 10 5 0 9 -4 9 -10z m-3310 -26 c0 -8 -9 -14 -20 -14 -22 0
-23 1 -14 24 7 18 34 10 34 -10z m2790 22 c0 -3 -4 -8 -10 -11 -5 -3 -10 -1
-10 4 0 6 5 11 10 11 6 0 10 -2 10 -4z m-160 -10 c0 -3 -4 -8 -10 -11 -5 -3
-10 -1 -10 4 0 6 5 11 10 11 6 0 10 -2 10 -4z m-2100 -21 c0 -8 -4 -15 -10
-15 -5 0 -10 7 -10 15 0 8 5 15 10 15 6 0 10 -7 10 -15z m70 -17 c0 -8 -20
-22 -24 -17 -2 2 -7 14 -11 27 -6 22 -5 22 14 10 12 -7 21 -16 21 -20z m430 2
c0 -5 -4 -10 -10 -10 -5 0 -10 5 -10 10 0 6 5 10 10 10 6 0 10 -4 10 -10z
m-743 -33 c-4 -15 -47 -22 -47 -9 0 30 12 41 32 31 10 -6 17 -16 15 -22z
m-387 -8 c0 -12 -27 -11 -35 1 -11 17 5 32 21 19 8 -6 14 -15 14 -20z m890 6
c-7 -8 -17 -12 -23 -8 -6 4 -3 11 8 19 23 17 32 10 15 -11z m352 3 c-7 -7 -12
-8 -12 -2 0 14 12 26 19 19 2 -3 -1 -11 -7 -17z m-808 -9 c-3 -5 -10 -7 -15
-3 -5 3 -7 10 -3 15 3 5 10 7 15 3 5 -3 7 -10 3 -15z m316 11 c0 -5 -4 -10
-10 -10 -5 0 -10 5 -10 10 0 6 5 10 10 10 6 0 10 -4 10 -10z m-580 -4 c0 -3
-4 -8 -10 -11 -5 -3 -10 -1 -10 4 0 6 5 11 10 11 6 0 10 -2 10 -4z m38 -8 c-2
-7 1 -14 5 -15 24 -7 65 -38 60 -46 -4 -6 5 -8 21 -5 14 3 29 1 32 -3 3 -5 1
-9 -5 -9 -13 0 -42 -55 -34 -64 4 -3 -1 -14 -11 -24 -9 -9 -24 -26 -32 -37
-15 -20 -15 -20 -9 1 4 16 0 23 -14 27 -11 2 -24 0 -30 -6 -8 -8 -11 -6 -11 5
0 9 6 19 13 21 7 3 4 6 -6 6 -11 1 -15 6 -11 13 4 6 3 8 -2 5 -6 -3 -16 -2
-23 3 -11 6 -9 10 6 19 21 11 37 59 34 99 -2 12 3 22 9 22 6 0 10 -6 8 -12z
m642 8 c0 -3 -4 -8 -10 -11 -5 -3 -10 -1 -10 4 0 6 5 11 10 11 6 0 10 -2 10
-4z m-435 -41 c0 -10 -6 -20 -12 -22 -8 -3 -13 5 -13 22 0 17 5 25 13 23 6 -3
12 -13 12 -23z m2685 15 c0 -5 -5 -10 -11 -10 -5 0 -7 5 -4 10 3 6 8 10 11 10
2 0 4 -4 4 -10z m-1846 -21 c-3 -5 -10 -7 -15 -3 -5 3 -7 10 -3 15 3 5 10 7
15 3 5 -3 7 -10 3 -15z m-514 1 c0 -5 -4 -10 -10 -10 -5 0 -10 5 -10 10 0 6 5
10 10 10 6 0 10 -4 10 -10z m-579 -10 c5 0 9 -4 9 -10 0 -14 -13 -12 -36 6
-17 14 -17 15 -1 10 10 -3 23 -6 28 -6z m669 -15 c0 -8 -2 -15 -4 -15 -2 0 -6
7 -10 15 -3 8 -1 15 4 15 6 0 10 -7 10 -15z m175 -11 c-19 -14 -35 -10 -35 8
0 5 7 8 15 4 8 -3 15 -1 15 5 0 6 5 7 12 3 8 -5 6 -11 -7 -20z m1545 16 c0 -5
-4 -10 -10 -10 -5 0 -10 5 -10 10 0 6 5 10 10 10 6 0 10 -4 10 -10z m-1600
-15 c0 -8 -4 -15 -10 -15 -5 0 -10 7 -10 15 0 8 5 15 10 15 6 0 10 -7 10 -15z
m116 -22 c-4 -4 -11 -1 -16 7 -16 25 -11 35 7 17 9 -9 13 -20 9 -24z m1174 17
c0 -5 -2 -10 -4 -10 -3 0 -8 5 -11 10 -3 6 -1 10 4 10 6 0 11 -4 11 -10z
m-2280 -10 c0 -5 -7 -10 -16 -10 -8 0 -12 5 -9 10 3 6 10 10 16 10 5 0 9 -4 9
-10z m404 -5 c-4 -8 -8 -15 -10 -15 -2 0 -4 7 -4 15 0 8 4 15 10 15 5 0 7 -7
4 -15z m356 5 c0 -5 -4 -10 -10 -10 -5 0 -9 -3 -9 -7 1 -5 1 -15 0 -23 -1 -13
-3 -13 -10 -1 -6 9 -5 21 2 33 13 20 27 24 27 8z m50 -5 c0 -9 -6 -12 -15 -9
-8 4 -15 10 -15 15 0 5 7 9 15 9 8 0 15 -7 15 -15z m1750 5 c0 -5 -4 -10 -10
-10 -5 0 -10 5 -10 10 0 6 5 10 10 10 6 0 10 -4 10 -10z m480 1 c0 -5 -7 -11
-14 -14 -10 -4 -13 -1 -9 9 6 15 23 19 23 5z m-1981 -59 c1 -8 -5 -12 -11 -9
-13 4 -18 34 -9 51 5 10 19 -19 20 -42z m1231 38 c0 -5 -5 -10 -11 -10 -5 0
-7 5 -4 10 3 6 8 10 11 10 2 0 4 -4 4 -10z m-1431 -29 c-15 -5 -22 6 -14 19 6
9 10 9 16 -1 5 -8 4 -15 -2 -18z m511 19 c0 -5 -4 -10 -10 -10 -5 0 -10 5 -10
10 0 6 5 10 10 10 6 0 10 -4 10 -10z m1731 -23 c-16 -16 -26 0 -10 19 9 11 15
12 17 4 2 -6 -1 -17 -7 -23z m-2711 13 c0 -5 -4 -10 -10 -10 -5 0 -10 5 -10
10 0 6 5 10 10 10 6 0 10 -4 10 -10z m1124 2 c2 -4 -5 -9 -17 -9 -17 -2 -19 0
-7 7 18 12 18 12 24 2z m1506 -2 c0 -5 -4 -10 -10 -10 -5 0 -10 5 -10 10 0 6
5 10 10 10 6 0 10 -4 10 -10z m-2830 -20 c0 -5 -4 -10 -10 -10 -5 0 -10 5 -10
10 0 6 5 10 10 10 6 0 10 -4 10 -10z m-84 -26 c-18 -18 -26 -18 -26 0 0 15 20
26 33 19 4 -2 1 -11 -7 -19z m829 16 c3 -5 1 -10 -4 -10 -6 0 -11 5 -11 10 0
6 2 10 4 10 3 0 8 -4 11 -10z m985 0 c0 -5 -5 -10 -11 -10 -5 0 -7 5 -4 10 3
6 8 10 11 10 2 0 4 -4 4 -10z m1350 6 c0 -3 -4 -8 -10 -11 -5 -3 -10 -1 -10 4
0 6 5 11 10 11 6 0 10 -2 10 -4z m-2885 -16 c3 -5 1 -10 -4 -10 -6 0 -11 5
-11 10 0 6 2 10 4 10 3 0 8 -4 11 -10z m1605 -11 c0 -5 -7 -9 -15 -9 -9 0 -12
6 -9 15 6 15 24 11 24 -6z m560 6 c0 -8 -7 -15 -15 -15 -16 0 -20 12 -8 23 11
12 23 8 23 -8z m-950 -14 c0 -4 -7 -8 -15 -8 -16 0 -20 9 -9 20 8 8 24 -1 24
-12z m568 1 c2 -7 -6 -12 -17 -12 -21 0 -27 11 -14 24 9 9 26 2 31 -12z m283
-5 c-10 -9 -11 -8 -5 6 3 10 9 15 12 12 3 -3 0 -11 -7 -18z m-1571 3 c0 -5 -5
-10 -11 -10 -5 0 -7 5 -4 10 3 6 8 10 11 10 2 0 4 -4 4 -10z m220 0 c0 -5 -4
-10 -10 -10 -5 0 -10 5 -10 10 0 6 5 10 10 10 6 0 10 -4 10 -10z m760 0 c0 -5
-4 -10 -10 -10 -5 0 -10 5 -10 10 0 6 5 10 10 10 6 0 10 -4 10 -10z m-1720
-10 c0 -5 -4 -10 -10 -10 -5 0 -10 5 -10 10 0 6 5 10 10 10 6 0 10 -4 10 -10z
m1530 0 c0 -5 -2 -10 -4 -10 -3 0 -8 5 -11 10 -3 6 -1 10 4 10 6 0 11 -4 11
-10z m1000 0 c0 -5 -2 -10 -4 -10 -3 0 -8 5 -11 10 -3 6 -1 10 4 10 6 0 11 -4
11 -10z m-2410 -4 c0 -3 -4 -8 -10 -11 -5 -3 -10 -1 -10 4 0 6 5 11 10 11 6 0
10 -2 10 -4z m2037 -17 c2 -16 -1 -19 -9 -11 -5 5 -7 15 -4 21 10 15 12 14 13
-10z m-2247 7 c0 -3 -4 -8 -10 -11 -5 -3 -10 -1 -10 4 0 6 5 11 10 11 6 0 10
-2 10 -4z m1545 -6 c3 -5 1 -10 -4 -10 -6 0 -11 5 -11 10 0 6 2 10 4 10 3 0 8
-4 11 -10z m265 0 c0 -5 -4 -10 -10 -10 -5 0 -10 5 -10 10 0 6 5 10 10 10 6 0
10 -4 10 -10z m-1483 -22 c-3 -8 -6 -5 -6 6 -1 11 2 17 5 13 3 -3 4 -12 1 -19z
m623 7 c0 -8 -4 -15 -10 -15 -5 0 -10 7 -10 15 0 8 5 15 10 15 6 0 10 -7 10
-15z m340 5 c0 -5 -4 -10 -10 -10 -5 0 -10 5 -10 10 0 6 5 10 10 10 6 0 10 -4
10 -10z m100 0 c0 -5 -4 -10 -10 -10 -5 0 -10 5 -10 10 0 6 5 10 10 10 6 0 10
-4 10 -10z m260 -30 c-12 -12 -25 -19 -28 -15 -4 3 4 15 18 25 14 10 26 17 28
15 2 -2 -6 -13 -18 -25z m-1595 10 c3 -5 1 -10 -4 -10 -6 0 -11 5 -11 10 0 6
2 10 4 10 3 0 8 -4 11 -10z m1710 -10 c3 -5 1 -10 -4 -10 -6 0 -11 5 -11 10 0
6 2 10 4 10 3 0 8 -4 11 -10z m679 -15 c3 -8 1 -15 -4 -15 -6 0 -10 7 -10 15
0 8 2 15 4 15 2 0 6 -7 10 -15z m-634 -16 c0 -5 -4 -9 -10 -9 -5 0 -10 7 -10
16 0 8 5 12 10 9 6 -3 10 -10 10 -16z m440 11 c0 -5 -4 -10 -10 -10 -5 0 -10
5 -10 10 0 6 5 10 10 10 6 0 10 -4 10 -10z m-370 -10 c0 -5 -2 -10 -4 -10 -3
0 -8 5 -11 10 -3 6 -1 10 4 10 6 0 11 -4 11 -10z m-1586 -22 c-4 -13 -7 -28
-7 -35 0 -7 -3 -10 -6 -8 -4 2 -15 -3 -26 -11 -19 -14 -19 -16 -2 -25 20 -12
23 -33 3 -26 -8 3 -20 -1 -28 -10 -10 -13 -10 -17 0 -20 14 -5 16 -33 2 -33
-5 0 -10 7 -10 15 0 8 -10 23 -21 34 -25 23 -19 50 12 58 12 4 18 11 15 19
-15 36 -18 49 -8 35 7 -9 11 -10 17 -2 3 7 15 9 26 6 14 -5 17 -3 13 9 -4 11
0 16 11 16 12 0 15 -5 9 -22z m1246 12 c0 -5 -4 -10 -10 -10 -5 0 -10 5 -10
10 0 6 5 10 10 10 6 0 10 -4 10 -10z m40 0 c0 -5 -4 -10 -10 -10 -5 0 -10 5
-10 10 0 6 5 10 10 10 6 0 10 -4 10 -10z m124 -32 c3 -25 -1 -41 -10 -49 -13
-10 -13 -8 -4 15 13 35 13 36 -5 36 -13 0 -14 4 -5 21 14 26 18 22 24 -23z
m386 9 c0 -5 -4 -5 -10 -2 -5 3 -10 14 -10 23 0 15 2 15 10 2 5 -8 10 -19 10
-23z m-2113 1 c-3 -8 -6 -5 -6 6 -1 11 2 17 5 13 3 -3 4 -12 1 -19z m143 12
c0 -5 -4 -10 -10 -10 -5 0 -10 5 -10 10 0 6 5 10 10 10 6 0 10 -4 10 -10z
m900 2 c0 -13 -12 -22 -22 -16 -10 6 -1 24 13 24 5 0 9 -4 9 -8z m-1390 -12
c0 -5 -5 -10 -11 -10 -5 0 -7 5 -4 10 3 6 8 10 11 10 2 0 4 -4 4 -10z m710
-16 c0 -8 -4 -14 -9 -14 -11 0 -22 26 -14 34 9 9 23 -3 23 -20z m1180 16 c0
-5 -4 -10 -10 -10 -5 0 -10 5 -10 10 0 6 5 10 10 10 6 0 10 -4 10 -10z m-540
-4 c0 -3 -4 -8 -10 -11 -5 -3 -10 -1 -10 4 0 6 5 11 10 11 6 0 10 -2 10 -4z
m655 -6 c3 -5 1 -10 -4 -10 -6 0 -11 5 -11 10 0 6 2 10 4 10 3 0 8 -4 11 -10z
m-1435 -21 c0 -5 -4 -9 -10 -9 -5 0 -10 7 -10 16 0 8 5 12 10 9 6 -3 10 -10
10 -16z m1394 -14 c-4 -8 -8 -15 -10 -15 -2 0 -4 7 -4 15 0 8 4 15 10 15 5 0
7 -7 4 -15z m355 -8 c11 4 10 1 -4 -10 -24 -19 -41 -21 -51 -6 -8 14 18 31 30
19 4 -4 16 -6 25 -3z m-2019 -7 c0 -5 -4 -10 -10 -10 -5 0 -10 5 -10 10 0 6 5
10 10 10 6 0 10 -4 10 -10z m2315 0 c3 -5 1 -10 -4 -10 -6 0 -11 5 -11 10 0 6
2 10 4 10 3 0 8 -4 11 -10z m-912 -34 c15 -3 27 -13 27 -21 0 -8 4 -15 9 -15
5 0 14 -14 20 -32 10 -27 8 -33 -9 -45 -11 -8 -20 -24 -20 -36 0 -16 -6 -23
-20 -24 -11 -1 -20 2 -20 8 0 14 -28 11 -33 -3 -4 -8 -6 -7 -6 3 -1 9 -8 20
-17 23 -8 3 -12 10 -9 16 3 5 -3 10 -13 10 -21 0 -25 29 -7 42 6 4 10 11 11
15 3 28 18 62 25 57 5 -3 9 5 9 18 1 20 2 21 13 7 7 -9 24 -19 40 -23z m457
14 c0 -5 -2 -10 -4 -10 -3 0 -8 5 -11 10 -3 6 -1 10 4 10 6 0 11 -4 11 -10z
m-596 -8 c2 -4 -4 -9 -15 -9 -11 -1 -17 2 -14 8 7 11 22 12 29 1z m-844 -26
c0 -3 -4 -8 -10 -11 -5 -3 -10 -1 -10 4 0 6 5 11 10 11 6 0 10 -2 10 -4z
m-650 -16 c0 -5 -4 -10 -10 -10 -5 0 -10 5 -10 10 0 6 5 10 10 10 6 0 10 -4
10 -10z m1220 -40 c0 -5 -4 -10 -10 -10 -5 0 -10 5 -10 10 0 6 5 10 10 10 6 0
10 -4 10 -10z m-640 -10 c0 -5 -4 -10 -10 -10 -5 0 -10 5 -10 10 0 6 5 10 10
10 6 0 10 -4 10 -10z m1245 0 c3 -5 1 -10 -4 -10 -6 0 -11 5 -11 10 0 6 2 10
4 10 3 0 8 -4 11 -10z m225 -10 c0 -5 -4 -10 -10 -10 -5 0 -10 5 -10 10 0 6 5
10 10 10 6 0 10 -4 10 -10z m-1540 -10 c0 -5 -5 -10 -11 -10 -5 0 -7 5 -4 10
3 6 8 10 11 10 2 0 4 -4 4 -10z m1910 -10 c0 -5 -7 -10 -15 -10 -8 0 -15 5
-15 10 0 6 7 10 15 10 8 0 15 -4 15 -10z m-2053 -22 c-3 -8 -6 -5 -6 6 -1 11
2 17 5 13 3 -3 4 -12 1 -19z m1409 -10 c-2 -18 -8 -34 -14 -36 -14 -4 -27 19
-15 27 5 3 12 14 16 24 10 27 17 20 13 -15z m1418 17 c-4 -8 -11 -15 -16 -15
-6 0 -5 6 2 15 7 8 14 15 16 15 2 0 1 -7 -2 -15z m-2034 -4 c0 -6 -4 -13 -10
-16 -5 -3 -10 1 -10 9 0 9 5 16 10 16 6 0 10 -4 10 -9z m560 -21 c0 -5 -5 -10
-11 -10 -5 0 -7 5 -4 10 3 6 8 10 11 10 2 0 4 -4 4 -10z m490 6 c0 -3 -4 -8
-10 -11 -5 -3 -10 -1 -10 4 0 6 5 11 10 11 6 0 10 -2 10 -4z m410 -16 c0 -5
-5 -10 -11 -10 -5 0 -7 5 -4 10 3 6 8 10 11 10 2 0 4 -4 4 -10z m-1380 -10
c-20 -13 -43 -13 -35 0 3 6 16 10 28 10 18 0 19 -2 7 -10z m1971 -13 c-5 -5
-18 -7 -28 -3 -14 6 -15 9 -4 16 19 11 46 1 32 -13z m-1075 -34 c-10 -10 -19
5 -10 18 6 11 8 11 12 0 2 -7 1 -15 -2 -18z m587 1 c-4 -10 -9 -12 -15 -6 -12
12 -1 35 12 27 5 -3 6 -13 3 -21z m-1143 -14 c0 -5 -4 -10 -10 -10 -5 0 -10 5
-10 10 0 6 5 10 10 10 6 0 10 -4 10 -10z m450 -40 c-21 -14 -30 -12 -37 6 -9
23 19 37 37 18 13 -13 13 -16 0 -24z m190 0 c13 -8 13 -10 -2 -10 -9 0 -20 5
-23 10 -8 13 5 13 25 0z m-1320 -50 c0 -5 -4 -10 -10 -10 -5 0 -10 5 -10 10 0
6 5 10 10 10 6 0 10 -4 10 -10z m350 -41 c0 -6 -4 -7 -10 -4 -5 3 -10 11 -10
16 0 6 5 7 10 4 6 -3 10 -11 10 -16z m-26 -51 c-4 -6 -10 -5 -15 3 -14 22 -10
33 6 19 8 -7 12 -17 9 -22z m576 13 c0 -6 -4 -13 -10 -16 -5 -3 -10 1 -10 9 0
9 5 16 10 16 6 0 10 -4 10 -9z m-50 -31 c0 -5 -5 -10 -11 -10 -5 0 -7 5 -4 10
3 6 8 10 11 10 2 0 4 -4 4 -10z m1301 -13 c-13 -13 -26 -3 -16 12 3 6 11 8 17
5 6 -4 6 -10 -1 -17z m-2576 3 c3 -5 2 -10 -4 -10 -5 0 -13 5 -16 10 -3 6 -2
10 4 10 5 0 13 -4 16 -10z m435 0 c0 -20 -5 -25 -20 -22 -20 5 -23 9 -15 21 8
14 35 14 35 1z m-520 -30 c0 -5 -2 -10 -4 -10 -3 0 -8 5 -11 10 -3 6 -1 10 4
10 6 0 11 -4 11 -10z m1170 0 c13 -9 13 -11 0 -20 -19 -12 -27 -12 -35 0 -7
11 2 30 13 30 4 0 14 -5 22 -10z m57 -25 c3 -9 3 -19 -1 -22 -7 -7 -36 16 -36
28 0 15 30 10 37 -6z m-1382 -45 c3 -6 -1 -7 -9 -4 -18 7 -21 14 -7 14 6 0 13
-4 16 -10z m825 0 c0 -5 -5 -10 -11 -10 -5 0 -7 5 -4 10 3 6 8 10 11 10 2 0 4
-4 4 -10z m695 -10 c3 -5 1 -10 -4 -10 -6 0 -11 5 -11 10 0 6 2 10 4 10 3 0 8
-4 11 -10z m-60 -61 c10 -15 -1 -23 -20 -15 -9 3 -13 10 -10 16 8 13 22 13 30
-1z m2265 -69 c0 -5 -5 -10 -11 -10 -5 0 -7 5 -4 10 3 6 8 10 11 10 2 0 4 -4
4 -10z m-2580 -20 c0 -5 -4 -10 -10 -10 -5 0 -10 5 -10 10 0 6 5 10 10 10 6 0
10 -4 10 -10z"/>
<path d="M2708 4013 c-10 -2 -18 -9 -18 -14 0 -6 10 -5 23 2 37 20 36 23 -5
12z"/>
<path d="M2750 4010 c0 -5 5 -10 11 -10 5 0 7 5 4 10 -3 6 -8 10 -11 10 -2 0
-4 -4 -4 -10z"/>
<path d="M2738 3983 c7 -3 16 -2 19 1 4 3 -2 6 -13 5 -11 0 -14 -3 -6 -6z"/>
<path d="M2816 3959 c-11 -10 -15 -19 -9 -19 5 0 18 9 28 20 23 26 6 25 -19
-1z"/>
<path d="M2695 3952 c-17 -12 -13 -38 7 -51 16 -10 19 -9 16 6 -2 10 -7 21
-13 25 -6 5 -5 8 3 8 6 0 12 5 12 10 0 12 -11 13 -25 2z"/>
<path d="M2911 3918 c5 -10 13 -18 17 -18 4 0 8 8 9 18 1 11 -5 18 -17 18 -15
0 -16 -4 -9 -18z"/>
<path d="M2447 3919 c7 -7 15 -10 18 -7 3 3 -2 9 -12 12 -14 6 -15 5 -6 -5z"/>
<path d="M2580 3920 c0 -5 5 -10 10 -10 6 0 10 5 10 10 0 6 -4 10 -10 10 -5 0
-10 -4 -10 -10z"/>
<path d="M2751 3916 c-6 -7 -12 -25 -13 -40 -1 -14 -6 -26 -11 -26 -5 0 -2 -7
7 -15 8 -8 25 -15 38 -15 20 -1 21 -2 6 -11 -10 -5 -18 -15 -18 -22 0 -7 4 -6
10 3 8 12 10 11 10 -7 0 -21 1 -21 40 -6 32 13 40 21 40 41 0 14 -3 23 -6 20
-3 -4 -15 3 -26 14 -11 11 -26 17 -33 14 -9 -3 -12 1 -10 15 4 21 -10 26 -19
7 -3 -7 -4 -1 -2 15 4 31 3 32 -13 13z"/>
<path d="M1960 3870 c0 -5 5 -10 11 -10 5 0 7 5 4 10 -3 6 -8 10 -11 10 -2 0
-4 -4 -4 -10z"/>
<path d="M1986 3853 c-6 -14 -5 -15 5 -6 7 7 10 15 7 18 -3 3 -9 -2 -12 -12z"/>
<path d="M3005 3851 c-3 -5 -1 -12 5 -16 12 -7 30 2 30 16 0 12 -27 12 -35 0z"/>
<path d="M1880 3839 c0 -5 5 -7 10 -4 6 3 10 8 10 11 0 2 -4 4 -10 4 -5 0 -10
-5 -10 -11z"/>
<path d="M2953 3835 c0 -8 4 -12 9 -9 5 3 6 10 3 15 -9 13 -12 11 -12 -6z"/>
<path d="M3055 3841 c-3 -5 -2 -12 3 -15 5 -3 9 1 9 9 0 17 -3 19 -12 6z"/>
<path d="M1926 3816 c7 -19 38 -22 32 -3 -3 6 -12 13 -21 15 -12 2 -15 -1 -11
-12z"/>
<path d="M2885 3820 c3 -5 8 -10 11 -10 2 0 4 5 4 10 0 6 -5 10 -11 10 -5 0
-7 -4 -4 -10z"/>
<path d="M1890 3816 c0 -2 7 -7 16 -10 8 -3 12 -2 9 4 -6 10 -25 14 -25 6z"/>
<path d="M1701 3794 c0 -11 3 -14 6 -6 3 7 2 16 -1 19 -3 4 -6 -2 -5 -13z"/>
<path d="M2915 3800 c3 -5 8 -10 11 -10 2 0 4 5 4 10 0 6 -5 10 -11 10 -5 0
-7 -4 -4 -10z"/>
<path d="M1640 3760 c0 -5 5 -10 11 -10 5 0 7 5 4 10 -3 6 -8 10 -11 10 -2 0
-4 -4 -4 -10z"/>
<path d="M1600 3750 c0 -5 7 -7 15 -4 8 4 15 8 15 10 0 2 -7 4 -15 4 -8 0 -15
-4 -15 -10z"/>
<path d="M1612 3726 l-22 -12 20 -22 c12 -12 25 -22 31 -22 6 0 3 7 -5 16 -20
20 -20 28 -1 20 8 -3 15 -1 15 4 0 6 8 10 17 10 21 0 12 9 -13 14 -11 2 -30
-1 -42 -8z"/>
<path d="M2445 3710 c3 -5 8 -10 11 -10 2 0 4 5 4 10 0 6 -5 10 -11 10 -5 0
-7 -4 -4 -10z"/>
<path d="M3375 3690 c3 -5 8 -10 11 -10 2 0 4 5 4 10 0 6 -5 10 -11 10 -5 0
-7 -4 -4 -10z"/>
<path d="M3375 3651 c-3 -6 1 -11 10 -11 9 0 13 -5 10 -10 -4 -6 -11 -8 -16
-5 -5 3 -6 -1 -3 -9 8 -22 43 -2 40 21 -3 20 -31 29 -41 14z"/>
<path d="M3431 3649 c-1 -9 6 -19 14 -23 9 -3 15 0 15 10 0 8 -4 13 -9 10 -5
-4 -12 0 -14 6 -4 8 -6 7 -6 -3z"/>
<path d="M2105 3610 c-3 -6 1 -7 9 -4 18 7 21 14 7 14 -6 0 -13 -4 -16 -10z"/>
<path d="M2333 3612 c-8 -5 -9 -13 -3 -22 8 -13 10 -13 10 2 0 9 6 19 13 21 6
3 8 6 2 6 -5 0 -15 -3 -22 -7z"/>
<path d="M3300 3605 c-7 -9 -8 -15 -2 -15 5 0 12 7 16 15 3 8 4 15 2 15 -2 0
-9 -7 -16 -15z"/>
<path d="M3425 3600 c3 -5 8 -10 11 -10 2 0 4 5 4 10 0 6 -5 10 -11 10 -5 0
-7 -4 -4 -10z"/>
<path d="M3448 3583 c-3 -23 0 -29 14 -30 21 -2 22 4 4 36 l-13 24 -5 -30z"/>
<path d="M2126 3585 c4 -8 9 -15 13 -15 4 0 8 7 8 15 0 8 -6 15 -13 15 -8 0
-11 -6 -8 -15z"/>
<path d="M2292 3592 c1 -4 -2 -15 -7 -25 -11 -27 -2 -28 17 -2 15 20 15 24 3
29 -8 3 -14 2 -13 -2z"/>
<path d="M2101 3573 c3 -20 -2 -33 -13 -30 -7 1 -15 -15 -18 -36 -8 -44 -36
-77 -68 -80 -25 -1 -27 -7 -9 -26 10 -11 8 -12 -9 -3 -23 12 -34 7 -30 -11 2
-7 1 -9 -1 -4 -7 11 -33 8 -33 -5 0 -6 -2 -9 -5 -6 -11 11 7 59 20 54 8 -3 16
2 19 10 4 10 1 13 -7 9 -6 -4 -4 0 6 8 17 14 16 16 -15 27 -18 7 -37 12 -42
11 -5 -1 -13 4 -17 11 -7 10 -9 10 -9 1 0 -7 -9 -13 -20 -13 -11 0 -20 -6 -20
-14 0 -21 27 -27 44 -11 20 21 50 20 42 -1 -3 -9 -6 -19 -6 -24 0 -5 -9 -12
-20 -15 -11 -4 -18 -10 -15 -15 3 -5 -6 -12 -20 -16 -14 -3 -25 -10 -25 -16 0
-5 -4 -7 -9 -4 -5 3 -12 -2 -15 -11 -6 -15 -8 -15 -16 -3 -8 12 -10 12 -10 -4
0 -14 -3 -16 -13 -7 -18 15 -16 -21 2 -43 12 -14 8 -20 -11 -17 -4 0 -10 -8
-13 -19 -7 -23 -45 -27 -45 -6 0 19 17 30 22 14 3 -8 9 -4 17 10 7 14 8 22 1
22 -5 0 -10 -4 -10 -9 0 -4 -8 -8 -17 -8 -41 0 -54 -4 -48 -13 4 -6 11 -7 17
-4 6 4 5 -3 -2 -16 -6 -12 -9 -28 -6 -36 3 -8 -1 -14 -9 -14 -9 0 -15 -9 -15
-23 0 -13 -5 -28 -12 -35 -9 -9 -8 -12 5 -12 9 0 17 -6 17 -14 0 -15 24 -28
34 -19 3 3 -1 12 -9 20 -8 8 -15 23 -15 33 0 24 28 52 43 43 7 -4 3 -9 -9 -13
-16 -6 -13 -8 12 -12 l30 -4 -14 28 c-10 21 -17 26 -26 19 -7 -6 -16 -8 -19
-4 -15 14 -5 23 26 23 18 0 38 5 45 12 10 10 12 6 8 -17 -2 -17 -1 -24 1 -17
2 6 9 12 15 12 5 0 8 -6 5 -14 -3 -8 1 -17 9 -20 8 -3 14 -13 14 -22 0 -10 3
-15 6 -11 4 3 13 0 20 -8 8 -8 21 -12 29 -9 26 10 16 -5 -14 -20 -16 -9 -32
-12 -36 -8 -5 4 -5 2 -1 -5 3 -6 2 -14 -4 -18 -5 -3 -10 -15 -10 -26 0 -10 -5
-19 -12 -19 -9 0 -9 -3 -1 -11 12 -12 37 -3 28 11 -3 5 3 11 12 13 17 4 17 5
1 6 -18 1 -15 31 3 31 5 0 20 10 34 21 19 17 22 26 15 40 -7 11 -7 20 0 24 5
3 10 1 10 -6 0 -8 7 -6 19 5 13 12 21 14 26 6 3 -5 11 -7 17 -4 6 4 5 10 -3
16 -11 8 -11 9 1 5 8 -2 14 -11 14 -20 -1 -10 5 -14 21 -11 24 4 31 -20 11
-45 -13 -17 -14 -40 -3 -65 6 -12 5 -16 -1 -12 -6 3 -14 1 -18 -5 -4 -8 -9 -7
-15 2 -8 11 -12 10 -24 -6 -18 -22 -16 -46 3 -53 7 -2 10 2 6 12 -3 9 -1 16 4
16 18 0 23 -17 12 -46 -10 -26 -11 -26 -25 -8 -8 10 -15 14 -15 7 0 -23 12
-42 25 -37 7 3 15 -4 18 -15 3 -12 12 -21 21 -21 10 0 13 -5 9 -17 -4 -11 -3
-14 5 -9 7 4 12 14 12 22 0 10 7 13 25 8 15 -4 25 -2 25 5 0 6 -7 8 -15 5 -8
-4 -15 -1 -15 5 0 6 12 12 28 12 24 2 24 2 4 6 -19 4 -21 7 -11 19 8 10 14 11
19 4 4 -6 15 0 28 15 16 18 18 25 7 25 -8 0 -19 -8 -24 -17 -8 -14 -10 -15
-11 -3 0 13 -1 13 -10 0 -9 -13 -12 -13 -24 2 -7 10 -16 15 -19 11 -4 -3 -7 7
-7 23 0 17 3 24 8 17 4 -7 16 -10 27 -8 11 2 26 4 33 4 6 1 12 6 12 12 0 5 -4
7 -10 4 -5 -3 -7 0 -4 9 5 12 9 12 35 -2 16 -10 29 -20 29 -24 0 -5 5 -8 11
-8 6 0 8 8 4 19 -3 11 -1 22 5 26 12 8 40 -12 40 -28 0 -5 -10 -2 -22 9 -12
10 -18 13 -14 6 8 -14 -11 -72 -27 -83 -5 -3 -2 -9 7 -12 12 -5 16 0 16 19 0
13 7 27 15 29 8 3 23 8 33 11 9 4 30 8 47 10 29 4 61 24 37 24 -7 0 -12 8 -12
18 1 15 2 15 15 -2 11 -15 12 -23 3 -33 -20 -25 -1 -24 27 1 19 18 25 31 20
45 -3 12 -11 21 -18 21 -8 0 -8 -3 1 -12 14 -14 16 -28 3 -28 -14 0 -21 43 -9
57 6 8 7 13 0 13 -13 0 -33 -25 -27 -33 3 -4 2 -5 -2 -2 -3 3 -12 0 -20 -6 -9
-9 -13 -8 -13 0 0 16 -48 14 -57 -3 -7 -12 -11 -12 -28 1 -14 10 -15 14 -5 13
33 -5 41 1 38 23 -2 12 -7 22 -13 22 -5 0 -16 4 -22 8 -7 5 -17 5 -23 2 -17
-10 -11 5 11 28 20 21 21 21 17 2 -2 -14 2 -19 14 -17 9 1 19 -6 23 -18 3 -11
11 -20 16 -20 13 0 11 18 -3 23 -7 2 -10 7 -6 11 3 4 16 3 27 -4 14 -7 21 -7
21 0 0 5 -4 10 -10 10 -5 0 -10 5 -10 11 0 5 5 7 10 4 6 -3 10 -2 10 4 0 5 -5
13 -10 16 -8 5 -8 11 0 20 8 10 8 15 0 20 -8 5 -8 11 -1 19 6 7 7 17 3 21 -4
5 -1 5 7 0 10 -6 12 -3 7 13 -4 13 -1 22 9 26 20 7 33 -23 15 -34 -9 -5 -9
-13 -3 -25 7 -12 13 -14 17 -6 4 6 12 11 18 11 6 0 9 -3 5 -6 -3 -4 0 -22 8
-41 9 -20 13 -55 11 -80 -2 -33 1 -46 13 -53 20 -10 50 3 32 14 -16 10 -14 23
5 30 8 3 13 2 10 -3 -3 -5 4 -16 17 -24 58 -39 75 -61 79 -103 1 -6 9 -9 17
-7 22 6 25 -33 4 -41 -8 -4 -13 -13 -9 -21 3 -8 0 -15 -6 -15 -6 0 -9 -2 -6
-5 3 -3 13 -2 22 1 14 5 15 9 4 15 -11 7 -10 11 2 18 8 5 17 8 20 6 4 -2 6 10
5 28 0 21 -5 31 -14 29 -7 -1 -11 3 -8 10 2 7 10 12 16 10 6 -1 11 2 11 8 0 5
-4 10 -10 10 -5 0 -8 10 -6 23 3 12 5 24 5 27 1 3 5 -1 10 -9 6 -9 11 -10 15
-2 4 6 2 11 -5 11 -6 0 -9 8 -6 20 3 10 0 21 -6 23 -6 2 -7 11 -3 23 8 18 8
18 17 -4 5 -13 13 -21 19 -17 6 4 7 -1 3 -11 -4 -12 -3 -15 6 -10 7 5 10 18 7
31 -4 14 -1 25 7 28 6 2 -3 4 -20 4 -37 0 -54 10 -35 22 9 5 8 13 -4 30 l-16
22 -25 -23 -25 -23 7 23 c6 22 5 22 -14 10 -13 -8 -19 -19 -15 -30 3 -10 1
-18 -5 -18 -6 0 -11 4 -11 9 0 5 -3 16 -6 25 -4 11 -1 16 11 16 9 0 13 5 10
10 -3 6 -1 10 5 10 11 0 7 70 -5 90 -3 6 1 10 10 10 15 0 15 1 0 16 -11 11
-14 25 -10 41 3 15 2 22 -4 19 -5 -4 -12 -2 -16 4 -3 5 -18 7 -31 4 l-25 -7
25 28 c27 29 36 56 12 36 -10 -8 -19 -6 -38 13 -20 18 -30 21 -44 13 -11 -5
-16 -6 -12 -2 4 5 3 14 -4 22 -9 11 -15 10 -33 -7 -20 -19 -25 -20 -36 -7 -11
11 -18 12 -32 3 -14 -8 -20 -8 -27 4 -5 8 -11 12 -14 9 -3 -3 0 -14 8 -24 12
-17 16 -17 30 -6 12 10 20 11 28 3 7 -7 -1 -13 -28 -21 -49 -14 -74 -14 -74
-1 0 6 -7 10 -16 10 -11 0 -14 6 -10 23 3 12 3 16 0 10 -8 -18 -27 -16 -21 2
4 8 2 17 -4 20 -5 4 -9 3 -8 -2z m329 -142 c0 -6 -4 -13 -10 -16 -5 -3 -10 1
-10 9 0 9 5 16 10 16 6 0 10 -4 10 -9z m-265 -21 c3 -5 1 -10 -4 -10 -6 0 -11
5 -11 10 0 6 2 10 4 10 3 0 8 -4 11 -10z m35 0 c0 -5 -2 -10 -4 -10 -3 0 -8 5
-11 10 -3 6 -1 10 4 10 6 0 11 -4 11 -10z m70 -41 c0 -6 -4 -7 -10 -4 -5 3
-10 11 -10 16 0 6 5 7 10 4 6 -3 10 -11 10 -16z m-180 1 c0 -5 -4 -10 -10 -10
-5 0 -10 5 -10 10 0 6 5 10 10 10 6 0 10 -4 10 -10z m84 -22 c-1 -13 -3 -26
-3 -30 -2 -16 -41 -8 -41 8 0 11 6 14 23 10 12 -3 16 -3 9 0 -10 5 -10 9 -1
20 15 18 16 18 13 -8z m76 2 c8 -16 7 -26 -5 -42 -12 -18 -15 -19 -15 -6 0 9
6 19 13 22 9 3 7 9 -5 19 -10 8 -15 17 -11 20 9 10 11 9 23 -13z m115 10 c3
-5 1 -10 -4 -10 -6 0 -11 5 -11 10 0 6 2 10 4 10 3 0 8 -4 11 -10z m-474 -49
c-11 -7 -9 -10 8 -16 11 -3 21 -11 21 -17 0 -5 6 -8 13 -5 9 3 13 -4 12 -23 0
-16 -3 -26 -7 -23 -5 2 -8 -1 -8 -7 0 -6 -5 -8 -10 -5 -6 4 -7 11 -4 17 4 7 2
8 -4 4 -7 -4 -12 -1 -12 6 0 8 -5 6 -11 -5 -5 -9 -8 -20 -5 -25 2 -4 -6 -7
-18 -7 -14 0 -22 6 -22 18 0 9 4 17 9 17 4 0 5 5 2 10 -3 6 -2 10 4 10 5 0 12
-6 15 -12 3 -7 4 3 1 23 -7 45 3 75 19 59 8 -8 7 -13 -3 -19z m63 14 c-4 -8
-10 -15 -14 -15 -4 0 -13 7 -20 15 -11 13 -8 15 13 15 19 0 25 -4 21 -15z
m-149 -15 c3 -5 1 -10 -4 -10 -6 0 -11 5 -11 10 0 6 2 10 4 10 3 0 8 -4 11
-10z m35 6 c0 -3 -4 -8 -10 -11 -5 -3 -10 -1 -10 4 0 6 5 11 10 11 6 0 10 -2
10 -4z m375 -15 c-3 -6 -14 -11 -23 -11 -13 0 -13 2 4 14 21 15 30 14 19 -3z
m140 9 c3 -5 -1 -10 -9 -10 -9 0 -16 5 -16 10 0 6 4 10 9 10 6 0 13 -4 16 -10z
m-375 -15 c0 -8 -4 -15 -10 -15 -5 0 -7 7 -4 15 4 8 8 15 10 15 2 0 4 -7 4
-15z m415 5 c3 -5 -1 -10 -10 -10 -9 0 -13 5 -10 10 3 6 8 10 10 10 2 0 7 -4
10 -10z m-531 -15 c4 -11 -2 -15 -22 -15 -26 1 -26 1 -8 15 24 18 23 18 30 0z
m186 5 c0 -5 -4 -10 -10 -10 -5 0 -10 5 -10 10 0 6 5 10 10 10 6 0 10 -4 10
-10z m63 -6 c3 -4 2 -16 -4 -27 -8 -15 -8 -18 1 -12 8 5 11 3 9 -4 -8 -23 -24
-11 -26 19 -3 28 6 38 20 24z m87 -14 c0 -5 -4 -10 -10 -10 -5 0 -10 5 -10 10
0 6 5 10 10 10 6 0 10 -4 10 -10z m-380 -15 c7 -8 10 -21 7 -29 -3 -8 4 -27
15 -42 14 -18 17 -25 7 -22 -8 2 -19 14 -25 26 -6 12 -19 31 -29 42 -17 19
-10 28 11 13 5 -5 1 0 -9 10 -15 13 -16 17 -4 17 8 0 20 -7 27 -15z m220 5 c0
-5 -5 -10 -11 -10 -5 0 -7 5 -4 10 3 6 8 10 11 10 2 0 4 -4 4 -10z m100 0 c0
-5 -5 -10 -11 -10 -5 0 -7 5 -4 10 3 6 8 10 11 10 2 0 4 -4 4 -10z m240 -24
c0 -3 -7 -6 -15 -6 -9 0 -15 9 -15 21 0 18 2 19 15 5 8 -8 15 -17 15 -20z m46
20 c15 -16 18 -26 6 -26 -4 0 -13 9 -20 20 -14 23 -7 26 14 6z m-249 -18 c6
15 43 16 63 1 12 -9 10 -10 -9 -5 -14 3 -30 -1 -39 -10 -10 -11 -18 -12 -25
-5 -7 7 -15 7 -24 0 -10 -9 -13 -8 -13 4 0 19 22 28 33 13 6 -8 10 -7 14 2z
m-127 -19 c13 -9 13 -10 -2 -6 -9 3 -22 -1 -28 -9 -17 -19 -40 -18 -40 2 0 11
6 15 20 11 11 -3 20 -1 20 4 0 12 12 11 30 -2z m356 -17 c1 -7 0 -8 -3 -2 -2
5 -9 8 -14 4 -5 -3 -9 0 -9 6 0 15 23 7 26 -8z m-311 -2 c-3 -5 -12 -10 -18
-10 -7 0 -6 4 3 10 19 12 23 12 15 0z m141 -17 c-6 -6 -36 9 -36 18 0 5 9 4
20 -3 10 -7 18 -14 16 -15z m200 5 c-21 -12 -21 -29 1 -21 10 4 14 2 10 -4 -9
-15 -79 -15 -74 0 2 6 13 13 25 15 12 2 22 10 22 17 0 9 6 12 16 8 15 -5 15
-7 0 -15z m-336 -28 c0 -4 -9 -6 -21 -3 -15 4 -17 8 -8 14 14 8 29 3 29 -11z
m437 6 c-2 -5 -9 -12 -17 -14 -7 -3 -10 0 -6 6 3 6 0 12 -6 15 -7 3 -3 4 10 4
12 -1 21 -6 19 -11z m-502 -33 c-3 -39 -4 -43 -13 -43 -4 0 -6 16 -4 35 5 41
20 48 17 8z m457 -11 c-7 -2 -12 -8 -12 -13 0 -6 4 -8 9 -5 5 3 11 -1 15 -9 3
-8 12 -15 21 -15 8 0 15 -6 15 -13 0 -26 -11 -24 -44 7 -26 24 -30 35 -22 48
5 9 15 14 20 11 6 -4 5 -8 -2 -11z m68 -2 c0 -5 -7 -7 -15 -4 -8 4 -12 10 -9
15 6 11 24 2 24 -11z m-430 -11 c0 -4 -8 -13 -17 -20 -14 -12 -15 -12 -9 0 5
8 3 16 -5 22 -10 6 -7 8 9 6 12 0 22 -4 22 -8z m258 -14 c-3 -3 -9 2 -12 12
-6 14 -5 15 5 6 7 -7 10 -15 7 -18z m-312 6 c-4 -5 -1 -11 6 -13 7 -3 5 -7 -6
-11 -10 -4 -15 -3 -11 3 3 6 1 10 -4 10 -6 0 -11 5 -11 10 0 6 7 10 16 10 8 0
13 -4 10 -9z m459 -1 c3 -5 1 -10 -4 -10 -6 0 -11 5 -11 10 0 6 2 10 4 10 3 0
8 -4 11 -10z m-280 -31 c11 -17 2 -18 -19 -3 -17 12 -17 14 -4 14 9 0 20 -5
23 -11z m-120 -9 c3 -5 2 -10 -4 -10 -5 0 -13 5 -16 10 -3 6 -2 10 4 10 5 0
13 -4 16 -10z m-143 -82 c-7 -7 -12 -8 -12 -2 0 14 12 26 19 19 2 -3 -1 -11
-7 -17z m38 -37 c0 -6 -9 -9 -19 -8 -11 0 -17 5 -15 9 7 11 34 10 34 -1z"/>
<path d="M1886 3275 c4 -8 10 -15 15 -15 4 0 6 7 3 15 -4 8 -10 15 -15 15 -4
0 -6 -7 -3 -15z"/>
<path d="M3130 3570 c-9 -6 -10 -10 -3 -10 6 0 15 5 18 10 8 12 4 12 -15 0z"/>
<path d="M3500 3548 c0 -11 22 -10 39 1 10 7 7 9 -12 8 -15 -1 -27 -5 -27 -9z"/>
<path d="M3116 3541 c-3 -5 5 -11 19 -13 30 -6 32 -2 6 12 -11 6 -22 6 -25 1z"/>
<path d="M3255 3539 c-4 -5 -11 -7 -16 -4 -5 4 -9 1 -9 -4 0 -12 16 -13 44 -2
17 7 18 8 3 14 -9 3 -19 2 -22 -4z"/>
<path d="M3297 3531 c-3 -13 1 -21 14 -24 22 -6 24 1 5 26 -13 17 -14 16 -19
-2z"/>
<path d="M3357 3523 c5 -12 3 -14 -8 -8 -8 4 -11 4 -6 0 4 -5 16 -9 26 -10 16
-1 17 1 8 17 -15 23 -29 24 -20 1z"/>
<path d="M2980 3511 c0 -5 6 -12 13 -15 6 -2 -8 -2 -33 1 -77 9 -95 9 -107 -4
-18 -16 -16 -30 5 -42 16 -10 16 -10 0 -11 -9 0 -23 9 -31 20 -13 19 -14 19
-27 0 -7 -10 -17 -17 -22 -14 -4 3 -8 0 -8 -6 0 -6 -4 -8 -10 -5 -14 8 -12 -5
3 -35 10 -20 10 -35 0 -70 -6 -25 -12 -38 -12 -30 -1 8 -8 2 -16 -14 -18 -34
-13 -45 11 -25 10 8 4 -5 -12 -27 -16 -23 -32 -40 -36 -37 -5 2 -8 -5 -8 -17
0 -12 5 -18 10 -15 6 3 10 -1 10 -10 0 -11 5 -15 14 -12 8 3 20 -1 27 -9 10
-12 9 -13 -5 -8 -30 11 -16 -15 16 -32 30 -15 31 -18 13 -24 -13 -5 -21 -3
-23 6 -5 20 -32 17 -32 -2 0 -24 32 -45 48 -32 10 8 11 7 6 -7 -5 -12 -4 -16
4 -11 7 4 12 -6 14 -26 2 -25 8 -34 26 -36 12 -2 20 -8 17 -13 -4 -5 -1 -10 4
-10 6 -1 16 -2 21 -3 6 0 15 -8 20 -16 8 -12 10 -12 10 -1 0 11 5 10 20 -4 11
-10 20 -13 20 -7 0 7 8 12 18 11 10 0 12 -3 5 -6 -20 -8 -15 -23 7 -23 11 0
20 6 20 13 0 8 3 9 8 1 4 -6 22 -11 41 -12 19 0 38 -7 42 -14 7 -10 9 -10 9 2
0 12 2 12 9 1 6 -9 11 -10 15 -2 12 18 36 13 29 -6 -5 -13 -3 -15 13 -9 10 4
42 9 69 10 34 2 49 6 47 15 -3 15 23 43 32 34 10 -10 7 -25 -4 -18 -5 3 -10 1
-10 -4 0 -14 4 -14 45 3 38 16 42 26 23 56 -10 15 -9 22 5 38 23 25 22 28 -10
27 -28 0 -42 -32 -20 -48 8 -5 5 -7 -8 -5 -21 3 -35 48 -16 48 6 0 11 7 11 16
0 12 -7 15 -25 12 -14 -3 -25 -2 -25 3 0 4 -8 16 -17 25 -17 17 -17 18 1 11
15 -6 17 -4 13 13 -8 29 9 34 36 10 16 -14 23 -29 20 -40 -4 -15 2 -21 23 -25
16 -4 36 -9 44 -11 10 -3 9 0 -3 10 -18 14 -18 15 2 26 12 6 21 16 21 22 0 7
-5 6 -15 -2 -18 -15 -20 0 -2 19 10 11 9 13 -5 8 -10 -4 -18 -2 -18 4 0 6 -7
8 -16 5 -8 -3 -12 -2 -9 4 3 6 -5 10 -19 10 -14 0 -26 4 -26 9 0 5 11 8 25 7
14 0 25 -4 25 -8 0 -5 8 -8 18 -7 11 0 12 2 4 6 -8 3 -10 9 -3 16 7 9 -1 12
-30 11 -21 -1 -36 2 -33 7 3 5 17 6 32 3 l27 -5 -26 17 c-33 21 -62 79 -54
105 5 15 -1 22 -24 32 -17 7 -28 16 -24 20 3 4 -1 7 -10 7 -9 0 -17 4 -17 9 0
4 -23 7 -51 5 -28 -2 -49 0 -46 3 4 3 0 12 -8 20 -23 22 -18 34 10 23 16 -6
25 -6 25 0 0 6 10 6 26 0 32 -13 31 -13 38 6 3 8 2 12 -4 9 -6 -3 -10 2 -10
11 0 16 -1 16 -15 -2 -8 -10 -15 -14 -15 -9 0 9 -27 12 -67 7 -6 -1 -14 -10
-16 -19 -4 -17 -5 -17 -6 -1 -1 12 -6 15 -18 11 -9 -4 -14 -2 -10 3 3 6 -8 10
-28 9 -30 -2 -33 0 -24 16 5 11 14 19 19 19 16 0 11 27 -5 34 -8 3 -15 1 -15
-3z m-10 -41 c0 -5 -5 -10 -11 -10 -5 0 -7 5 -4 10 3 6 8 10 11 10 2 0 4 -4 4
-10z m-70 -20 c0 -5 -4 -10 -10 -10 -5 0 -10 5 -10 10 0 6 5 10 10 10 6 0 10
-4 10 -10z m-80 -10 c0 -5 -2 -10 -4 -10 -3 0 -8 5 -11 10 -3 6 -1 10 4 10 6
0 11 -4 11 -10z m200 -14 c0 -3 -4 -8 -10 -11 -5 -3 -10 -1 -10 4 0 6 5 11 10
11 6 0 10 -2 10 -4z m41 -120 c-8 -10 -8 -16 3 -25 11 -9 15 -8 20 5 9 24 19
10 11 -15 -6 -20 -6 -20 -40 1 -29 20 -31 24 -16 35 22 17 36 16 22 -1z m204
4 c-3 -5 -11 -10 -16 -10 -6 0 -7 5 -4 10 3 6 11 10 16 10 6 0 7 -4 4 -10z
m-35 -35 c0 -8 -4 -15 -10 -15 -5 0 -7 7 -4 15 4 8 8 15 10 15 2 0 4 -7 4 -15z
m-266 -10 c-4 -8 -10 -15 -15 -15 -4 0 -6 7 -3 15 4 8 10 15 15 15 4 0 6 -7 3
-15z m149 0 c-3 -9 -8 -14 -10 -11 -3 3 -2 9 2 15 9 16 15 13 8 -4z m176 -65
c0 -12 -2 -11 -13 3 -8 10 -20 15 -30 11 -9 -3 -16 -1 -16 5 0 7 -10 3 -22 -9
-24 -22 -39 -22 -46 0 -3 9 2 11 16 8 12 -4 26 0 33 8 8 10 15 11 24 4 9 -8
14 -6 19 6 6 16 8 15 21 -2 8 -10 14 -26 14 -34z m-219 20 c0 -5 -5 -10 -11
-10 -5 0 -7 5 -4 10 3 6 8 10 11 10 2 0 4 -4 4 -10z m-286 -25 c-7 -18 -20
-19 -30 -3 -4 7 -3 8 4 4 7 -4 12 -2 12 3 0 6 4 11 10 11 5 0 7 -7 4 -15z
m486 -6 c0 -5 -4 -9 -10 -9 -5 0 -10 7 -10 16 0 8 5 12 10 9 6 -3 10 -10 10
-16z m-12 -25 c17 -12 8 -34 -12 -34 -26 0 -39 27 -25 52 9 18 14 19 17 8 3
-8 12 -20 20 -26z m62 -44 c0 -5 -4 -10 -10 -10 -5 0 -10 5 -10 10 0 6 5 10
10 10 6 0 10 -4 10 -10z m30 -60 c0 -5 -4 -10 -10 -10 -5 0 -10 5 -10 10 0 6
5 10 10 10 6 0 10 -4 10 -10z m-440 -30 c0 -5 -5 -10 -11 -10 -5 0 -7 5 -4 10
3 6 8 10 11 10 2 0 4 -4 4 -10z m-40 -50 c0 -5 -7 -7 -15 -4 -8 4 -15 8 -15
10 0 2 7 4 15 4 8 0 15 -4 15 -10z"/>
<path d="M1805 3500 c-3 -5 -1 -10 4 -10 6 0 11 5 11 10 0 6 -2 10 -4 10 -3 0
-8 -4 -11 -10z"/>
<path d="M1970 3490 c0 -5 4 -10 9 -10 6 0 13 5 16 10 3 6 -1 10 -9 10 -9 0
-16 -4 -16 -10z"/>
<path d="M3066 3474 c-8 -22 -1 -28 19 -17 14 8 14 11 2 22 -12 9 -16 8 -21
-5z"/>
<path d="M1976 3453 c-6 -14 -5 -15 5 -6 7 7 10 15 7 18 -3 3 -9 -2 -12 -12z"/>
<path d="M1865 3440 c-3 -6 1 -7 9 -4 18 7 21 14 7 14 -6 0 -13 -4 -16 -10z"/>
<path d="M3575 3370 c3 -5 11 -10 16 -10 6 0 7 5 4 10 -3 6 -11 10 -16 10 -6
0 -7 -4 -4 -10z"/>
<path d="M2495 3310 c-3 -5 -1 -10 4 -10 6 0 11 5 11 10 0 6 -2 10 -4 10 -3 0
-8 -4 -11 -10z"/>
<path d="M3515 3300 c3 -5 11 -10 16 -10 6 0 7 5 4 10 -3 6 -11 10 -16 10 -6
0 -7 -4 -4 -10z"/>
<path d="M2279 3243 c-3 -18 -1 -33 4 -33 5 0 6 -8 2 -17 -4 -13 -3 -15 5 -7
7 7 8 24 2 50 l-8 39 -5 -32z"/>
<path d="M3580 3245 c0 -8 4 -15 8 -15 5 0 9 7 9 15 0 8 -4 15 -9 15 -4 0 -8
-7 -8 -15z"/>
<path d="M3670 3205 c0 -15 18 -40 24 -34 3 3 -1 14 -9 25 -8 10 -14 15 -15 9z"/>
<path d="M1612 3180 c13 -20 28 -27 28 -12 0 10 -22 32 -32 32 -5 0 -3 -9 4
-20z"/>
<path d="M2306 3181 c-3 -5 1 -15 10 -22 13 -10 17 -10 25 2 5 8 9 19 9 24 -1
6 -5 2 -11 -8 -6 -9 -15 -15 -21 -11 -6 4 -5 10 3 15 10 6 10 9 2 9 -6 0 -14
-4 -17 -9z"/>
<path d="M1911 3163 c-10 -11 -11 -20 -4 -31 14 -23 35 -28 26 -6 -4 11 -2 15
7 12 7 -2 14 -17 16 -32 4 -38 22 -56 22 -22 0 14 -5 26 -11 26 -6 0 0 10 12
21 18 17 20 23 10 30 -7 4 -18 5 -24 1 -19 -12 -34 -10 -28 4 7 19 -9 17 -26
-3z"/>
<path d="M1775 3160 c-3 -5 -3 -10 2 -10 4 0 1 -5 -7 -10 -12 -7 -12 -10 -1
-10 7 0 11 -6 8 -13 -3 -8 -1 -20 5 -28 7 -10 8 -5 5 19 -3 29 -1 33 15 29 10
-3 16 -1 12 4 -3 5 -12 9 -20 9 -8 0 -12 5 -9 10 3 6 4 10 1 10 -3 0 -8 -4
-11 -10z"/>
<path d="M1587 3138 c20 -22 18 -22 20 1 1 14 -4 19 -17 18 -18 -1 -18 -3 -3
-19z"/>
<path d="M1740 3120 c0 -6 -4 -9 -9 -5 -6 3 -15 -3 -20 -13 -8 -16 -6 -21 15
-31 34 -15 35 -15 32 20 -2 28 -18 54 -18 29z"/>
<path d="M1875 3110 c-3 -5 -1 -10 4 -10 6 0 11 5 11 10 0 6 -2 10 -4 10 -3 0
-8 -4 -11 -10z"/>
<path d="M1610 3090 c0 -5 5 -10 11 -10 5 0 7 5 4 10 -3 6 -8 10 -11 10 -2 0
-4 -4 -4 -10z"/>
<path d="M3282 3074 c-7 -8 -8 -14 -3 -14 10 0 25 19 20 25 -2 1 -10 -3 -17
-11z"/>
<path d="M1885 3070 c3 -5 8 -10 11 -10 2 0 4 5 4 10 0 6 -5 10 -11 10 -5 0
-7 -4 -4 -10z"/>
<path d="M1672 3041 c1 -18 6 -34 9 -37 9 -5 2 56 -6 64 -3 3 -4 -9 -3 -27z"/>
<path d="M2390 3065 c0 -5 5 -17 10 -25 5 -8 10 -10 10 -5 0 6 -5 17 -10 25
-5 8 -10 11 -10 5z"/>
<path d="M1566 3051 c-4 -7 -5 -15 -2 -18 9 -9 19 4 14 18 -4 11 -6 11 -12 0z"/>
<path d="M1630 3049 c0 -5 5 -7 10 -4 6 3 10 8 10 11 0 2 -4 4 -10 4 -5 0 -10
-5 -10 -11z"/>
<path d="M1837 3044 c-8 -8 1 -24 14 -24 5 0 9 7 9 15 0 15 -12 20 -23 9z"/>
<path d="M1595 3030 c-3 -6 1 -7 9 -4 18 7 21 14 7 14 -6 0 -13 -4 -16 -10z"/>
<path d="M1735 3003 c-4 -17 -11 -23 -21 -19 -8 3 -12 2 -9 -3 3 -5 -3 -12
-12 -15 -10 -2 -1 -2 20 1 35 5 51 -7 27 -22 -5 -3 -10 0 -10 7 0 9 -3 9 -8 2
-10 -16 -52 -25 -49 -10 1 6 -6 10 -15 10 -10 -1 -18 2 -18 7 0 5 -7 9 -15 9
-19 0 -19 -7 0 -26 8 -9 19 -12 25 -9 5 3 10 1 10 -4 0 -6 -6 -11 -14 -11 -8
0 -16 -6 -19 -12 -3 -8 -9 -3 -14 11 -9 22 -10 23 -17 5 -10 -26 24 -52 40
-29 17 22 24 18 23 -12 0 -16 -3 -22 -6 -16 -3 10 -8 10 -19 -1 -8 -8 -14 -20
-14 -26 0 -6 -4 -9 -9 -6 -5 3 -7 15 -4 26 4 14 0 20 -11 20 -9 0 -16 4 -16 9
0 15 -44 -1 -62 -23 -21 -25 -24 -43 -5 -27 19 15 43 -14 46 -58 1 -18 10 -51
20 -73 16 -37 19 -38 34 -23 15 14 18 14 37 -5 11 -11 16 -20 10 -20 -18 0
-11 -18 9 -23 15 -4 19 0 16 16 -3 11 0 27 5 36 8 14 9 14 10 -2 0 -16 3 -16
28 -4 15 8 33 12 40 10 19 -7 14 8 -10 28 -11 11 -18 22 -13 27 4 4 10 1 12
-5 3 -7 11 -13 19 -13 9 0 12 5 9 10 -3 6 -1 10 4 10 6 0 11 4 11 10 0 5 -8 6
-17 3 -16 -6 -16 -5 -4 10 7 9 22 15 35 13 11 -3 24 -5 29 -5 4 -1 7 -6 7 -12
0 -6 -9 -8 -22 -4 -18 5 -20 4 -8 -4 25 -18 37 -13 51 21 7 17 15 26 17 20 2
-6 -2 -21 -8 -33 -8 -14 -8 -25 -2 -31 6 -6 5 -19 -4 -36 -15 -30 -3 -42 21
-22 11 9 15 9 15 1 0 -6 4 -11 10 -11 5 0 7 7 4 15 -4 10 2 18 17 24 22 9 21
9 -8 8 -18 -1 -33 -6 -33 -11 0 -5 -2 -7 -5 -4 -5 5 11 53 23 68 2 2 7 -2 12
-10 7 -11 10 -7 10 17 0 44 19 91 29 74 6 -8 11 -9 15 -3 3 6 2 13 -4 17 -6 4
-8 10 -5 15 3 5 -6 12 -20 16 -14 3 -25 10 -25 15 0 5 -5 9 -11 9 -5 0 -7 -5
-3 -12 5 -8 2 -9 -9 -5 -10 3 -17 3 -18 -1 -5 -37 -5 -62 1 -62 6 0 30 -44 30
-55 0 -3 -4 -5 -10 -5 -5 0 -10 7 -10 15 0 8 -9 19 -21 25 -11 7 -18 17 -16
24 3 7 -1 13 -8 13 -9 0 -10 -8 -4 -31 11 -38 11 -36 -1 -36 -5 0 -14 10 -21
21 -8 16 -8 20 1 14 9 -6 9 -2 0 15 -7 13 -17 19 -26 16 -10 -4 -12 -2 -8 6 4
7 3 8 -4 4 -7 -4 -12 -14 -12 -21 0 -9 -6 -12 -15 -9 -8 4 -13 10 -10 14 3 5
-3 10 -12 13 -12 2 -7 7 17 14 24 7 34 15 32 26 -2 10 2 17 9 17 6 0 9 -8 6
-20 -6 -22 8 -37 18 -20 4 6 12 7 18 3 7 -3 0 6 -14 20 -27 28 -65 28 -55 1 7
-19 -18 -18 -34 1 -7 9 -21 13 -31 10 -25 -8 -24 1 0 15 15 8 24 6 37 -8 15
-14 17 -14 12 -1 -11 28 6 43 33 29 l24 -13 -20 20 c-11 11 -23 19 -27 16 -11
-6 -10 9 2 27 6 10 10 11 10 3 0 -7 5 -13 10 -13 20 0 -8 36 -28 37 -14 1 -22
-6 -27 -24z m17 -15 c-7 -7 -12 -8 -12 -2 0 14 12 26 19 19 2 -3 -1 -11 -7
-17z m-30 -100 c-7 -7 -12 -8 -12 -2 0 14 12 26 19 19 2 -3 -1 -11 -7 -17z
m18 -60 c0 -7 -13 2 -30 20 -16 18 -30 37 -30 42 0 5 14 -4 30 -20 17 -16 30
-35 30 -42z m194 35 c19 8 20 -2 2 -25 -14 -19 -32 -25 -21 -8 3 6 1 10 -4 10
-6 0 -11 10 -11 23 0 16 3 19 9 8 5 -8 16 -11 25 -8z m-334 -5 c0 -10 -36 -29
-43 -22 -3 3 -3 12 -1 19 6 14 44 17 44 3z m91 -15 c13 -13 3 -33 -16 -33 -8
0 -30 -8 -50 -17 -19 -9 -38 -13 -42 -9 -10 10 19 27 35 21 7 -3 11 -1 9 3 -3
4 -1 16 3 28 9 22 42 26 61 7z m121 -28 c3 -13 1 -22 -3 -19 -5 3 -18 0 -30
-7 l-22 -11 22 31 c12 17 24 31 26 31 1 0 5 -11 7 -25z m-87 -52 c-5 -51 -15
-71 -15 -30 0 15 -6 27 -13 27 -7 0 -13 10 -14 23 0 12 1 16 4 10 7 -18 23
-16 23 2 0 8 4 15 10 15 6 0 8 -19 5 -47z m22 25 c-3 -8 -6 -5 -6 6 -1 11 2
17 5 13 3 -3 4 -12 1 -19z m-57 -48 c0 -5 -2 -10 -4 -10 -3 0 -8 5 -11 10 -3
6 -1 10 4 10 6 0 11 -4 11 -10z m-60 -25 c-14 -17 -40 -20 -40 -6 0 8 18 16
44 20 5 0 3 -6 -4 -14z"/>
<path d="M2100 3025 c0 -2 10 -10 23 -16 20 -11 21 -11 8 4 -13 16 -31 23 -31
12z"/>
<path d="M2422 3015 c-15 -17 -4 -19 33 -5 17 7 24 7 20 0 -3 -6 1 -10 9 -10
10 0 13 6 10 15 -8 19 -55 19 -72 0z"/>
<path d="M1830 3001 c0 -5 5 -13 10 -16 6 -3 10 -2 10 4 0 5 -4 13 -10 16 -5
3 -10 2 -10 -4z"/>
<path d="M1536 2984 c-3 -9 -6 -25 -6 -37 0 -18 2 -19 10 -7 8 13 10 13 10 -2
0 -9 4 -20 10 -23 6 -3 7 1 4 10 -5 11 -2 14 10 9 12 -5 15 -2 10 10 -3 9 -2
16 4 16 5 0 13 8 17 18 5 13 3 14 -5 6 -7 -7 -21 -9 -33 -6 -20 5 -20 6 -1 13
18 7 18 8 -2 8 -12 1 -25 -6 -28 -15z"/>
<path d="M1630 2991 c0 -18 30 -25 43 -11 9 10 9 11 -1 6 -7 -4 -19 -2 -27 4
-11 9 -15 9 -15 1z"/>
<path d="M1882 2978 c2 -7 -4 -13 -12 -13 -8 0 -21 -4 -27 -8 -8 -5 -13 -3
-13 4 0 7 -3 9 -7 6 -3 -4 2 -15 11 -26 13 -15 14 -20 4 -24 -9 -4 -7 -6 4 -6
9 -1 20 4 23 9 4 6 15 8 25 5 10 -3 21 -1 25 5 3 6 -4 10 -17 11 -13 0 -17 3
-10 6 15 6 16 29 2 38 -6 4 -9 1 -8 -7z"/>
<path d="M2180 2969 c0 -5 5 -7 10 -4 6 3 10 8 10 11 0 2 -4 4 -10 4 -5 0 -10
-5 -10 -11z"/>
<path d="M2504 2965 c-4 -8 -10 -12 -15 -9 -5 3 -9 -2 -9 -10 0 -12 -7 -14
-30 -9 -19 3 -30 1 -30 -6 0 -6 9 -11 21 -11 11 0 30 -5 42 -12 20 -10 21 -10
8 5 -7 10 -9 17 -3 17 5 0 17 11 26 25 9 14 12 25 6 25 -6 0 -13 -7 -16 -15z"/>
<path d="M2101 2957 c-8 -10 -7 -14 4 -14 8 0 15 6 15 14 0 7 -2 13 -4 13 -2
0 -9 -6 -15 -13z"/>
<path d="M2097 2885 c-11 -20 -16 -24 -17 -13 0 11 -5 15 -15 12 -10 -4 -13
-13 -10 -25 5 -14 0 -22 -17 -28 -13 -5 -26 -7 -30 -4 -5 2 -8 -1 -8 -7 0 -6
7 -13 16 -17 8 -3 13 -12 10 -19 -3 -8 0 -14 5 -14 6 0 9 9 6 20 -4 16 0 20
19 20 18 0 22 -4 17 -17 -4 -10 -13 -22 -20 -26 -8 -5 -11 -16 -8 -28 4 -10 3
-19 -2 -19 -10 0 -38 42 -35 53 1 5 -3 5 -10 1 -29 -16 -37 -26 -31 -41 5 -12
8 -11 18 7 l12 22 17 -26 c9 -14 12 -26 6 -26 -5 0 -10 -5 -10 -11 0 -5 5 -7
10 -4 6 3 13 0 15 -8 3 -7 14 -13 23 -12 20 1 26 10 19 28 -4 9 -6 9 -6 0 -1
-15 -31 -18 -31 -4 0 5 9 13 20 16 11 3 20 11 20 17 0 6 6 6 15 -2 12 -10 15
-10 15 3 0 21 13 28 30 17 13 -8 12 -11 -4 -23 -11 -8 -16 -19 -12 -25 4 -7 1
-21 -7 -33 -10 -14 -16 -16 -19 -8 -3 9 -7 7 -11 -5 -4 -10 -3 -15 3 -11 6 3
10 0 10 -7 0 -9 3 -9 10 2 7 11 10 11 10 2 0 -9 5 -10 18 -3 13 7 22 7 29 0 6
-6 19 -6 33 -1 l24 9 -27 7 c-16 3 -25 11 -22 16 3 6 1 10 -5 10 -6 0 -13 -7
-16 -15 -7 -17 -34 -21 -34 -4 0 5 5 7 10 4 6 -3 10 1 10 9 0 20 40 32 51 15
5 -8 9 -9 9 -4 0 17 -14 33 -35 38 -18 4 -18 5 3 6 12 0 22 6 22 11 0 6 -3 9
-7 8 -22 -4 -40 15 -35 35 5 20 3 19 -21 -7 -33 -36 -62 -30 -47 9 12 32 5 46
-18 38 -9 -3 0 11 22 30 21 20 36 42 34 49 -3 8 -11 1 -21 -17z m-26 -138 c-1
-12 -15 -9 -19 4 -3 6 1 10 8 8 6 -3 11 -8 11 -12z m79 -37 c0 -5 -4 -10 -10
-10 -5 0 -10 5 -10 10 0 6 5 10 10 10 6 0 10 -4 10 -10z"/>
<path d="M1195 2875 c0 -13 3 -21 8 -18 4 2 7 10 7 18 0 8 -3 16 -7 18 -5 3
-8 -5 -8 -18z"/>
<path d="M3810 2880 c-9 -6 -10 -10 -3 -10 6 0 15 5 18 10 8 12 4 12 -15 0z"/>
<path d="M1228 2873 c7 -3 16 -2 19 1 4 3 -2 6 -13 5 -11 0 -14 -3 -6 -6z"/>
<path d="M1260 2870 c0 -5 5 -10 10 -10 6 0 10 5 10 10 0 6 -4 10 -10 10 -5 0
-10 -4 -10 -10z"/>
<path d="M2130 2860 c0 -5 5 -10 10 -10 6 0 10 5 10 10 0 6 -4 10 -10 10 -5 0
-10 -4 -10 -10z"/>
<path d="M2175 2850 c10 -11 20 -20 22 -20 2 0 -2 9 -9 20 -7 11 -17 20 -22
20 -5 0 -1 -9 9 -20z"/>
<path d="M3777 2864 c-7 -8 18 -34 32 -34 6 0 11 -5 11 -11 0 -6 -7 -8 -16 -5
-8 3 -13 2 -9 -3 3 -5 -1 -11 -7 -14 -7 -2 -1 -4 14 -3 16 0 28 6 28 13 0 7 8
17 18 22 15 9 14 11 -8 11 -22 1 -23 2 -6 9 11 4 15 10 10 14 -6 3 -16 2 -24
-3 -8 -5 -19 -5 -26 0 -6 6 -14 7 -17 4z"/>
<path d="M2100 2845 c-7 -9 -8 -15 -2 -15 5 0 12 7 16 15 3 8 4 15 2 15 -2 0
-9 -7 -16 -15z"/>
<path d="M1270 2839 c0 -5 5 -7 10 -4 6 3 10 8 10 11 0 2 -4 4 -10 4 -5 0 -10
-5 -10 -11z"/>
<path d="M1236 2825 c4 -8 8 -15 10 -15 2 0 4 7 4 15 0 8 -4 15 -10 15 -5 0
-7 -7 -4 -15z"/>
<path d="M1954 2819 c-2 -4 2 -10 8 -13 10 -5 10 -7 1 -12 -15 -7 -17 -34 -4
-34 12 0 16 8 24 41 5 19 3 26 -9 26 -8 0 -17 -4 -20 -8z"/>
<path d="M1485 2811 c-3 -5 -1 -12 4 -15 5 -4 12 -2 16 4 4 6 11 8 16 5 5 -4
9 -1 9 4 0 13 -37 15 -45 2z"/>
<path d="M2180 2786 c7 -7 13 -7 20 0 6 6 3 10 -10 10 -13 0 -16 -4 -10 -10z"/>
<path d="M2904 2762 c3 -6 -2 -13 -11 -15 -14 -4 -13 -5 5 -6 23 -1 30 13 10
25 -6 4 -8 3 -4 -4z"/>
<path d="M1513 2726 c34 -31 32 -31 34 -5 1 12 -3 19 -10 16 -7 -2 -21 0 -32
6 -13 7 -11 1 8 -17z"/>
<path d="M2505 2709 c-4 -6 -4 -13 -1 -16 3 -4 6 -1 6 6 0 7 5 9 12 5 7 -4 8
-3 4 4 -9 15 -13 15 -21 1z"/>
<path d="M2600 2709 c0 -5 5 -7 10 -4 6 3 10 8 10 11 0 2 -4 4 -10 4 -5 0 -10
-5 -10 -11z"/>
<path d="M1832 2695 c-11 -12 -10 -15 3 -15 8 0 15 7 15 15 0 18 -2 18 -18 0z"/>
<path d="M1553 2684 c-17 -18 -16 -27 2 -20 8 3 15 0 15 -6 0 -6 2 -9 5 -6 3
3 2 14 -2 25 -7 17 -10 19 -20 7z"/>
<path d="M1954 2694 c-6 -3 -9 -16 -6 -30 3 -19 7 -22 13 -12 6 9 11 10 17 2
4 -6 14 -13 23 -16 11 -4 15 0 14 15 -1 14 -8 21 -18 19 -11 -2 -15 2 -11 13
6 15 -8 19 -32 9z"/>
<path d="M1765 2669 c-4 -6 -5 -12 -2 -15 2 -3 7 2 10 11 7 17 1 20 -8 4z"/>
<path d="M1707 2653 c-13 -12 -7 -25 6 -14 8 6 17 8 20 4 4 -3 7 -1 7 5 0 13
-22 16 -33 5z"/>
<path d="M1840 2658 c-9 -29 1 -48 25 -48 6 0 5 4 -1 8 -7 4 -14 16 -17 27 -2
11 -6 17 -7 13z"/>
<path d="M1917 2651 c-17 -6 -17 -8 1 -24 19 -18 20 -17 18 7 0 14 -1 26 -1
25 0 0 -8 -4 -18 -8z"/>
<path d="M3750 2644 c0 -8 5 -12 10 -9 6 4 8 11 5 16 -9 14 -15 11 -15 -7z"/>
<path d="M1881 2624 c10 -13 10 -17 0 -24 -8 -4 -9 -10 -3 -14 12 -7 23 19 16
39 -4 8 -11 15 -16 15 -6 0 -5 -7 3 -16z"/>
<path d="M3075 2629 c-4 -6 -5 -12 -2 -15 2 -3 7 2 10 11 7 17 1 20 -8 4z"/>
<path d="M1650 2621 c0 -5 7 -14 15 -21 10 -8 13 -21 9 -33 -5 -17 -4 -18 9
-6 15 14 12 39 -4 39 -5 0 -9 7 -9 15 0 8 -4 15 -10 15 -5 0 -10 -4 -10 -9z"/>
<path d="M1770 2614 c0 -8 5 -12 10 -9 6 3 10 10 10 16 0 5 -4 9 -10 9 -5 0
-10 -7 -10 -16z"/>
<path d="M2211 2613 c2 -10 -2 -28 -9 -40 -12 -22 -12 -22 13 -11 16 7 24 17
20 26 -3 7 -5 20 -5 28 0 8 -5 14 -11 14 -5 0 -9 -8 -8 -17z"/>
<path d="M1693 2613 c9 -2 17 -9 17 -14 0 -5 4 -9 10 -9 5 0 7 7 4 15 -4 8
-16 14 -28 14 -16 -1 -17 -2 -3 -6z"/>
<path d="M2098 2613 c7 -3 16 -2 19 1 4 3 -2 6 -13 5 -11 0 -14 -3 -6 -6z"/>
<path d="M2850 2600 c-7 -14 -6 -23 6 -34 18 -18 34 -21 34 -5 0 5 -4 7 -10 4
-13 -8 -13 1 0 25 7 13 6 19 -5 24 -8 3 -19 -3 -25 -14z"/>
<path d="M1796 2588 c-5 -14 -9 -18 -13 -10 -2 6 -8 12 -13 12 -21 0 -15 -25
6 -26 13 -1 24 2 24 6 0 4 8 7 18 6 22 -1 23 28 1 32 -10 2 -19 -6 -23 -20z"/>
<path d="M2035 2601 c-6 -11 9 -23 19 -14 9 9 7 23 -3 23 -6 0 -12 -4 -16 -9z"/>
<path d="M1727 2578 c-10 -11 -17 -22 -14 -24 2 -2 12 5 22 16 23 26 16 33 -8
8z"/>
<path d="M2067 2593 c-12 -12 -7 -22 8 -17 8 4 15 10 15 15 0 11 -14 12 -23 2z"/>
<path d="M1925 2570 c3 -5 8 -10 11 -10 2 0 4 5 4 10 0 6 -5 10 -11 10 -5 0
-7 -4 -4 -10z"/>
<path d="M1822 2555 c-17 -19 -1 -19 24 0 14 11 15 14 4 14 -8 0 -21 -6 -28
-14z"/>
<path d="M2034 2555 c3 -21 16 -31 16 -12 0 9 -4 18 -9 21 -5 4 -8 -1 -7 -9z"/>
<path d="M2083 2541 c-27 -22 -28 -28 -8 -28 8 0 12 4 9 9 -3 4 -1 8 4 8 6 0
12 7 16 15 7 19 6 19 -21 -4z"/>
<path d="M2130 2550 c-8 -5 -12 -12 -9 -15 4 -3 12 1 19 10 14 17 11 19 -10 5z"/>
<path d="M2246 2546 c21 -15 30 -14 19 3 -3 6 -14 11 -23 11 -13 0 -13 -2 4
-14z"/>
<path d="M1908 2539 c-10 -5 -18 -15 -18 -21 0 -7 7 -5 18 4 9 9 24 18 32 21
13 5 13 5 0 6 -8 0 -23 -4 -32 -10z"/>
<path d="M2143 2527 c-4 -7 -18 -17 -30 -22 -20 -9 -20 -12 -8 -29 8 -11 18
-17 21 -13 4 4 1 14 -7 24 -8 9 -9 14 -2 10 6 -4 17 1 25 11 7 10 20 21 28 25
12 4 12 6 -2 6 -9 1 -21 -5 -25 -12z"/>
<path d="M1960 2516 c0 -2 7 -7 16 -10 8 -3 12 -2 9 4 -6 10 -25 14 -25 6z"/>
<path d="M2050 2493 c0 -7 0 -15 0 -18 0 -3 3 -5 6 -4 4 0 10 -5 15 -12 12
-20 22 -3 10 18 -6 10 -11 14 -11 8 0 -5 -5 -3 -10 5 -6 10 -10 11 -10 3z"/>
<path d="M2247 2479 c4 -13 8 -18 11 -10 2 7 -1 18 -6 23 -8 8 -9 4 -5 -13z"/>
<path d="M3405 2489 c-4 -6 -3 -15 3 -21 6 -6 11 -4 15 6 7 18 -9 31 -18 15z"/>
<path d="M1465 2483 c-26 -5 -52 -63 -29 -63 9 0 12 -5 8 -11 -4 -7 -1 -10 6
-7 7 2 15 14 16 26 3 16 0 20 -14 16 -9 -3 -4 6 13 20 17 14 28 25 25 25 -3
-1 -14 -4 -25 -6z"/>
<path d="M2154 2466 c1 -14 5 -29 10 -33 4 -4 6 4 4 19 -5 35 -15 46 -14 14z"/>
<path d="M2000 2470 c8 -5 20 -10 25 -10 6 0 3 5 -5 10 -8 5 -19 10 -25 10 -5
0 -3 -5 5 -10z"/>
<path d="M2202 2450 c9 -29 11 -29 24 -13 18 24 17 34 -1 27 -8 -4 -15 -1 -15
5 0 6 -4 11 -9 11 -6 0 -6 -12 1 -30z"/>
<path d="M2276 2463 c-8 -20 18 -51 28 -34 4 6 3 11 -3 11 -6 0 -8 6 -5 14 3
8 1 17 -4 20 -6 3 -13 -2 -16 -11z"/>
<path d="M2125 2429 c-4 -6 -5 -12 -2 -15 2 -3 7 2 10 11 7 17 1 20 -8 4z"/>
<path d="M3480 2425 c-9 -10 -9 -15 -1 -15 6 0 11 4 11 9 0 5 8 12 18 14 14 4
14 5 1 6 -9 0 -22 -6 -29 -14z"/>
<path d="M2180 2420 c0 -5 5 -10 10 -10 6 0 10 5 10 10 0 6 -4 10 -10 10 -5 0
-10 -4 -10 -10z"/>
<path d="M1481 2404 c0 -11 3 -14 6 -6 3 7 2 16 -1 19 -3 4 -6 -2 -5 -13z"/>
<path d="M2275 2400 c-2 -4 9 -7 25 -8 17 0 30 3 30 7 0 10 -49 11 -55 1z"/>
<path d="M2075 2390 c3 -5 8 -10 11 -10 2 0 4 5 4 10 0 6 -5 10 -11 10 -5 0
-7 -4 -4 -10z"/>
<path d="M1316 2345 c4 -8 8 -15 10 -15 2 0 4 7 4 15 0 8 -4 15 -10 15 -5 0
-7 -7 -4 -15z"/>
<path d="M1445 2319 c-4 -6 -5 -12 -2 -15 2 -3 7 2 10 11 7 17 1 20 -8 4z"/>
<path d="M1637 2313 c-10 -9 -9 -23 1 -23 5 0 9 7 9 15 0 17 -1 18 -10 8z"/>
<path d="M1404 2299 c-11 -18 14 -35 29 -20 10 12 9 13 -7 7 -14 -5 -17 -2
-12 9 6 17 0 20 -10 4z"/>
<path d="M3332 2250 c0 -14 2 -19 5 -12 2 6 2 18 0 25 -3 6 -5 1 -5 -13z"/>
<path d="M1875 2230 c-16 -7 -17 -9 -3 -9 9 -1 20 4 23 9 7 11 7 11 -20 0z"/>
<path d="M1975 2219 c-4 -6 -5 -12 -2 -15 2 -3 7 2 10 11 7 17 1 20 -8 4z"/>
<path d="M3300 2219 c0 -6 -7 -18 -16 -26 -12 -12 -13 -18 -3 -24 14 -8 40 -1
52 15 5 7 7 3 5 -9 -2 -12 -11 -19 -21 -19 -9 1 -14 -3 -11 -8 3 -5 -3 -12
-15 -15 -26 -7 -19 -21 10 -19 14 1 30 17 49 51 l28 50 -24 1 c-15 1 -25 -5
-29 -17 -8 -25 -25 -15 -18 11 3 11 3 20 -1 20 -3 0 -6 -5 -6 -11z"/>
<path d="M1765 2210 c-3 -5 -1 -10 4 -10 6 0 11 5 11 10 0 6 -2 10 -4 10 -3 0
-8 -4 -11 -10z"/>
<path d="M2000 2199 c0 -5 5 -7 10 -4 6 3 10 8 10 11 0 2 -4 4 -10 4 -5 0 -10
-5 -10 -11z"/>
<path d="M3385 2199 c-4 -6 -5 -12 -2 -15 2 -3 7 2 10 11 7 17 1 20 -8 4z"/>
<path d="M1935 2190 c-4 -6 -11 -24 -15 -41 -8 -26 -7 -29 5 -19 8 6 12 17 9
24 -3 8 2 21 11 30 9 9 12 16 6 16 -5 0 -13 -5 -16 -10z"/>
<path d="M1984 2178 c16 -12 17 -18 6 -37 -6 -12 -18 -20 -25 -17 -17 6 -40
-19 -26 -28 5 -4 12 -2 16 4 4 6 11 8 16 5 5 -4 9 -1 9 5 0 7 6 10 14 7 9 -4
12 0 9 13 -3 12 2 20 18 25 24 8 16 16 -31 30 -23 7 -24 6 -6 -7z"/>
<path d="M1690 2169 c0 -5 9 -9 20 -9 11 0 20 2 20 4 0 2 -9 6 -20 9 -11 3
-20 1 -20 -4z"/>
<path d="M1789 2163 c-12 -16 -12 -17 2 -6 9 7 19 10 22 6 4 -3 7 -1 7 5 0 17
-16 15 -31 -5z"/>
<path d="M3265 2150 c3 -5 11 -10 16 -10 6 0 7 5 4 10 -3 6 -11 10 -16 10 -6
0 -7 -4 -4 -10z"/>
<path d="M1644 2128 c1 -25 2 -25 19 -11 21 19 22 27 3 20 -8 -3 -17 -1 -19 6
-2 7 -4 0 -3 -15z"/>
<path d="M1795 2140 c-3 -5 1 -10 9 -10 9 0 16 5 16 10 0 6 -4 10 -9 10 -6 0
-13 -4 -16 -10z"/>
<path d="M2100 2136 c0 -2 7 -6 15 -10 8 -3 15 -1 15 4 0 6 -7 10 -15 10 -8 0
-15 -2 -15 -4z"/>
<path d="M1710 2120 c0 -5 5 -10 11 -10 5 0 7 5 4 10 -3 6 -8 10 -11 10 -2 0
-4 -4 -4 -10z"/>
<path d="M2077 2116 c-8 -20 -2 -51 9 -49 11 3 14 52 4 58 -5 3 -10 -1 -13 -9z"/>
<path d="M2110 2106 c0 -2 7 -6 15 -10 8 -3 15 -1 15 4 0 6 -7 10 -15 10 -8 0
-15 -2 -15 -4z"/>
<path d="M1665 2090 c-3 -5 -1 -10 4 -10 6 0 11 5 11 10 0 6 -2 10 -4 10 -3 0
-8 -4 -11 -10z"/>
<path d="M2030 2080 c0 -14 -5 -18 -17 -14 -17 5 -17 5 0 -6 9 -6 22 -8 27 -5
6 3 7 -1 4 -9 -3 -9 -11 -13 -18 -9 -6 4 -15 8 -21 9 -5 1 -19 5 -29 10 -17 6
-18 4 -12 -19 6 -25 5 -26 -23 -21 -17 4 -31 1 -36 -6 -5 -9 -1 -10 14 -5 11
3 26 3 33 -1 7 -4 22 -8 35 -9 21 -1 21 1 6 17 -15 17 -14 18 18 14 19 -2 37
1 42 8 5 8 9 7 16 -2 7 -11 9 -11 14 2 4 10 -2 20 -16 28 -14 7 -17 13 -9 16
16 5 5 22 -14 22 -8 0 -14 -9 -14 -20z"/>
<path d="M2275 2090 c-4 -6 3 -10 14 -10 25 0 27 6 6 13 -8 4 -17 2 -20 -3z"/>
<path d="M1873 2071 c-8 -13 -19 -17 -37 -14 -28 6 -34 -8 -13 -29 8 -7 12
-19 9 -26 -3 -10 6 -9 34 4 22 9 50 19 64 22 22 5 23 6 5 12 -20 7 -53 -6 -67
-25 -5 -6 -12 -5 -20 4 -10 11 -11 14 0 18 7 3 18 10 25 17 16 15 57 18 57 4
0 -6 3 -8 6 -5 10 10 -16 37 -35 37 -9 0 -21 -8 -28 -19z"/>
<path d="M1954 2078 c-4 -7 -4 -10 1 -6 4 4 15 2 23 -5 12 -10 14 -9 11 2 -7
20 -26 25 -35 9z"/>
<path d="M2246 2073 c-6 -14 -5 -15 5 -6 7 7 10 15 7 18 -3 3 -9 -2 -12 -12z"/>
<path d="M3747 2075 c-21 -15 -21 -21 -2 -29 8 -3 14 0 12 7 -1 7 6 11 16 9 9
-2 17 1 17 6 0 16 -25 20 -43 7z"/>
<path d="M2126 2065 c4 -8 8 -15 10 -15 2 0 4 7 4 15 0 8 -4 15 -10 15 -5 0
-7 -7 -4 -15z"/>
<path d="M2165 2057 c1 -11 7 -22 14 -23 6 -1 7 0 1 3 -5 2 -8 9 -4 14 3 5 13
5 24 -1 13 -7 21 -7 26 2 4 7 4 10 -1 6 -4 -4 -13 -4 -19 1 -26 20 -43 19 -41
-2z"/>
<path d="M2100 2052 c0 -4 10 -13 23 -21 22 -14 22 -14 3 8 -20 22 -26 25 -26
13z"/>
<path d="M2257 2039 c7 -7 15 -10 18 -7 3 3 -2 9 -12 12 -14 6 -15 5 -6 -5z"/>
<path d="M1790 2030 c0 -5 5 -10 11 -10 5 0 8 -4 4 -9 -3 -5 -1 -12 5 -16 11
-7 13 5 4 29 -7 18 -24 22 -24 6z"/>
<path d="M2036 1995 c3 -8 15 -13 27 -11 32 5 31 21 -3 24 -23 2 -28 -1 -24
-13z"/>
<path d="M2108 2003 c7 -3 16 -2 19 1 4 3 -2 6 -13 5 -11 0 -14 -3 -6 -6z"/>
<path d="M1935 1981 c-3 -5 -2 -12 3 -15 5 -3 9 1 9 9 0 17 -3 19 -12 6z"/>
<path d="M2015 1970 c-3 -5 -1 -10 4 -10 6 0 11 5 11 10 0 6 -2 10 -4 10 -3 0
-8 -4 -11 -10z"/>
<path d="M3508 1973 c7 -3 16 -2 19 1 4 3 -2 6 -13 5 -11 0 -14 -3 -6 -6z"/>
<path d="M1990 1965 c0 -5 5 -17 10 -25 5 -8 10 -10 10 -5 0 6 -5 17 -10 25
-5 8 -10 11 -10 5z"/>
<path d="M1954 1948 c-4 -6 -3 -8 4 -4 5 3 13 0 15 -6 3 -8 6 -6 6 5 1 19 -14
23 -25 5z"/>
<path d="M3606 1941 c-4 -7 -5 -15 -2 -18 9 -9 19 4 14 18 -4 11 -6 11 -12 0z"/>
<path d="M1185 1930 c-3 -5 -1 -10 4 -10 6 0 11 5 11 10 0 6 -2 10 -4 10 -3 0
-8 -4 -11 -10z"/>
<path d="M1925 1920 c-3 -5 -1 -10 4 -10 6 0 11 5 11 10 0 6 -2 10 -4 10 -3 0
-8 -4 -11 -10z"/>
<path d="M1957 1906 c-4 -10 -1 -13 9 -9 7 3 14 0 14 -6 0 -6 -5 -11 -12 -11
-6 0 -9 -2 -6 -5 3 -3 13 -3 22 1 12 4 14 10 6 19 -5 6 -7 15 -3 18 3 4 -1 7
-9 7 -9 0 -18 -7 -21 -14z"/>
<path d="M3555 1900 c3 -5 8 -10 11 -10 2 0 4 5 4 10 0 6 -5 10 -11 10 -5 0
-7 -4 -4 -10z"/>
<path d="M3435 1890 c-3 -6 1 -7 9 -4 18 7 21 14 7 14 -6 0 -13 -4 -16 -10z"/>
<path d="M3520 1889 c0 -5 5 -7 10 -4 6 3 10 8 10 11 0 2 -4 4 -10 4 -5 0 -10
-5 -10 -11z"/>
<path d="M1191 1871 c-7 -5 -12 -14 -10 -20 3 -7 11 -3 21 9 18 21 13 26 -11
11z"/>
<path d="M1890 1876 c0 -2 7 -7 16 -10 8 -3 12 -2 9 4 -6 10 -25 14 -25 6z"/>
<path d="M1850 1855 c0 -8 -9 -15 -19 -15 -11 0 -22 -4 -25 -8 -3 -5 7 -8 23
-8 21 0 27 5 29 23 1 13 0 23 -3 23 -3 0 -5 -7 -5 -15z"/>
<path d="M1942 1839 c-7 -10 -12 -27 -13 -36 0 -16 -2 -15 -8 2 -5 11 -7 23
-5 27 2 3 -5 4 -17 1 -16 -5 -18 -8 -7 -15 10 -7 10 -11 1 -15 -7 -2 -13 -14
-13 -25 0 -18 -2 -19 -17 -7 -11 10 -14 10 -9 2 5 -9 1 -13 -11 -14 -16 0 -16
-1 2 -8 11 -5 23 -7 26 -5 4 2 4 -20 0 -45 -1 -3 -6 0 -13 7 -10 10 -15 7 -25
-10 -9 -17 -12 -19 -13 -7 0 19 24 42 33 32 4 -3 7 -1 7 5 0 15 -15 15 -41 0
-17 -11 -22 -10 -33 4 -14 20 -31 12 -40 -19 -8 -25 -26 -31 -26 -9 0 8 -7 17
-16 20 -23 9 -36 7 -30 -3 4 -5 0 -12 -6 -14 -10 -4 -10 -6 0 -6 7 -1 10 -6 6
-12 -4 -7 0 -9 14 -5 11 4 23 2 27 -4 4 -6 1 -9 -6 -8 -6 2 -14 -3 -17 -11 -3
-8 0 -11 7 -7 6 4 11 2 11 -3 0 -22 15 -10 29 22 21 45 36 60 48 44 25 -32 26
-40 5 -35 -12 4 -20 2 -16 -3 3 -5 12 -9 21 -9 11 0 14 -7 10 -27 l-5 -28 15
23 c19 27 33 28 33 2 0 -11 3 -20 8 -20 4 0 13 9 20 20 7 12 8 20 2 20 -5 0
-10 4 -10 8 0 11 51 35 58 27 3 -3 0 -5 -7 -5 -7 0 -9 -4 -6 -10 4 -6 -1 -7
-12 -3 -15 6 -16 4 -6 -8 10 -12 10 -18 0 -28 -10 -11 -8 -11 9 -3 12 6 25 8
29 4 5 -4 5 -2 2 5 -4 6 -2 13 4 15 8 3 8 14 0 43 -11 41 -6 59 9 35 7 -11 10
-8 10 13 0 15 -5 27 -10 27 -13 0 -4 51 11 60 6 4 7 10 2 13 -5 3 -14 -3 -21
-14z m-2 -71 c0 -4 -5 -10 -10 -13 -6 -4 -8 -16 -4 -28 6 -21 6 -21 -15 2 -20
23 -27 52 -15 64 7 7 44 -14 44 -25z"/>
<path d="M1703 1800 c1 -21 10 -18 13 5 1 8 -2 15 -6 15 -5 0 -8 -9 -7 -20z"/>
<path d="M1985 1810 c3 -5 14 -10 23 -10 15 0 15 2 2 10 -20 13 -33 13 -25 0z"/>
<path d="M1647 1788 c-6 -18 4 -48 15 -48 6 0 7 11 4 24 -4 15 -1 26 7 29 7 4
6 6 -5 6 -9 1 -18 -5 -21 -11z"/>
<path d="M1789 1783 c5 -10 9 -22 9 -28 0 -5 6 -11 14 -13 10 -3 10 -1 -1 6
-11 8 -9 11 8 17 11 3 21 13 21 21 0 17 -26 19 -33 2 -4 -10 -6 -10 -6 0 -1 6
-6 12 -11 12 -7 0 -7 -6 -1 -17z"/>
<path d="M1615 1760 c3 -5 11 -10 16 -10 6 0 7 5 4 10 -3 6 -11 10 -16 10 -6
0 -7 -4 -4 -10z"/>
<path d="M1556 1723 c-6 -14 -5 -15 5 -6 7 7 10 15 7 18 -3 3 -9 -2 -12 -12z"/>
<path d="M1985 1680 c3 -5 8 -10 11 -10 2 0 4 5 4 10 0 6 -5 10 -11 10 -5 0
-7 -4 -4 -10z"/>
<path d="M1741 1654 c0 -11 3 -14 6 -6 3 7 2 16 -1 19 -3 4 -6 -2 -5 -13z"/>
<path d="M3461 1634 c0 -11 3 -14 6 -6 3 7 2 16 -1 19 -3 4 -6 -2 -5 -13z"/>
<path d="M2117 1613 c3 -7 6 -13 8 -13 1 0 7 6 13 13 8 10 6 13 -7 13 -11 0
-17 -6 -14 -13z"/>
<path d="M1344 1599 c-3 -6 -2 -15 3 -20 5 -5 9 -1 9 11 0 23 -2 24 -12 9z"/>
<path d="M3130 1409 c-8 -5 -13 -9 -10 -10 3 0 13 -2 23 -4 9 -2 17 1 17 5 0
15 -15 19 -30 9z"/>
<path d="M3027 1324 c3 -7 11 -10 19 -7 20 8 17 22 -5 20 -10 0 -17 -7 -14
-13z"/>
<path d="M2044 1309 c-8 -14 21 -43 35 -35 8 5 8 13 1 27 -12 21 -25 25 -36 8z
m26 -20 c0 -6 -4 -7 -10 -4 -5 3 -10 11 -10 16 0 6 5 7 10 4 6 -3 10 -11 10
-16z"/>
<path d="M1890 1231 c0 -6 4 -13 10 -16 6 -3 7 1 4 9 -7 18 -14 21 -14 7z"/>
<path d="M2740 1227 c0 -20 -16 -23 -22 -5 -3 7 -7 3 -10 -8 -4 -18 -2 -20 14
-16 21 5 35 28 24 39 -3 4 -6 -1 -6 -10z"/>
<path d="M2530 1170 c0 -5 5 -10 11 -10 5 0 7 5 4 10 -3 6 -8 10 -11 10 -2 0
-4 -4 -4 -10z"/>
<path d="M2556 1143 c-6 -14 -5 -15 5 -6 7 7 10 15 7 18 -3 3 -9 -2 -12 -12z"/>
<path d="M3790 2356 c0 -2 7 -6 15 -10 8 -3 15 -1 15 4 0 6 -7 10 -15 10 -8 0
-15 -2 -15 -4z"/>
<path d="M1063 1170 c2 -8 -3 -20 -12 -27 -9 -7 -11 -13 -5 -13 20 0 34 24 23
40 -9 13 -10 13 -6 0z"/>
<path d="M858 1009 c-10 -5 -18 -14 -18 -19 0 -17 15 -11 28 10 14 23 13 23
-10 9z"/>
</g>
</svg>
